<?xml version="1.0" encoding="UTF-8" standalone="no"?>
<svg
   width="64"
   height="64"
   viewBox="0 0 64 64"
   fill="none"
   version="1.1"
   id="svg4"
   xml:space="preserve"
   sodipodi:docname="slack.svg"
   inkscape:version="1.4 (e7c3feb100, 2024-10-09)"
   xmlns:inkscape="http://www.inkscape.org/namespaces/inkscape"
   xmlns:sodipodi="http://sodipodi.sourceforge.net/DTD/sodipodi-0.dtd"
   xmlns:xlink="http://www.w3.org/1999/xlink"
   xmlns="http://www.w3.org/2000/svg"
   xmlns:svg="http://www.w3.org/2000/svg"><sodipodi:namedview
     id="namedview1"
     pagecolor="#ffffff"
     bordercolor="#000000"
     borderopacity="0.25"
     inkscape:showpageshadow="2"
     inkscape:pageopacity="0.0"
     inkscape:pagecheckerboard="0"
     inkscape:deskcolor="#d1d1d1"
     showgrid="false"
     inkscape:zoom="2.185"
     inkscape:cx="2.7459954"
     inkscape:cy="26.315789"
     inkscape:current-layer="svg4"><inkscape:page
       x="0"
       y="0"
       width="64"
       height="64"
       id="page2"
       margin="0"
       bleed="0" /><inkscape:grid
       id="grid4"
       units="px"
       originx="-74"
       originy="0"
       spacingx="0.5"
       spacingy="0.5"
       empcolor="#0099e5"
       empopacity="0.30196078"
       color="#0099e5"
       opacity="0.0784314"
       empspacing="2"
       enabled="true"
       visible="false" /></sodipodi:namedview><defs
     id="defs4"><inkscape:path-effect
       effect="offset"
       id="path-effect4"
       is_visible="true"
       lpeversion="1.3"
       linejoin_type="miter"
       unit="px"
       offset="-0.5"
       miter_limit="4"
       attempt_force_join="false"
       update_on_knot_move="true" /><linearGradient
       id="linearGradient4"><stop
         style="stop-color:#fafafa;stop-opacity:1;"
         offset="0"
         id="stop4" /><stop
         style="stop-color:#d4d4d4;stop-opacity:1;"
         offset="1"
         id="stop5" /></linearGradient><linearGradient
       y2="42.05267"
       x2="37.962261"
       y1="5.8481112"
       x1="37.962261"
       gradientTransform="matrix(1.4324324,0,0,1.4362832,-2.378375,-2.3995437)"
       gradientUnits="userSpaceOnUse"
       id="linearGradient3904"
       xlink:href="#linearGradient4270" /><linearGradient
       id="linearGradient4270"><stop
         id="stop4272"
         style="stop-color:#ffffff;stop-opacity:1"
         offset="0" /><stop
         id="stop4274"
         style="stop-color:#ffffff;stop-opacity:0.23529412"
         offset="0.08653846" /><stop
         id="stop4276"
         style="stop-color:#ffffff;stop-opacity:0.15686275"
         offset="0.91346157" /><stop
         id="stop4278"
         style="stop-color:#ffffff;stop-opacity:0.39215687"
         offset="1" /></linearGradient><linearGradient
       id="linearGradient3688-166-749-654"><stop
         offset="0"
         style="stop-color:#181818;stop-opacity:1"
         id="stop3088" /><stop
         offset="1"
         style="stop-color:#181818;stop-opacity:0"
         id="stop3090" /></linearGradient><linearGradient
       id="linearGradient3702-501-757-795"><stop
         offset="0"
         style="stop-color:#181818;stop-opacity:0"
         id="stop3100" /><stop
         offset="0.5"
         style="stop-color:#181818;stop-opacity:1"
         id="stop3102" /><stop
         offset="1"
         style="stop-color:#181818;stop-opacity:0"
         id="stop3104" /></linearGradient><radialGradient
       cx="4.9929786"
       cy="43.5"
       r="2.5"
       fx="4.9929786"
       fy="43.5"
       id="radialGradient3337-2-2"
       xlink:href="#linearGradient3688-166-749-654"
       gradientUnits="userSpaceOnUse"
       gradientTransform="matrix(2.4045407,0,0,0.99999998,41.985755,15.500001)" /><radialGradient
       cx="4.9929786"
       cy="43.5"
       r="2.5"
       fx="4.9929786"
       fy="43.5"
       id="radialGradient3339-1-4"
       xlink:href="#linearGradient3688-166-749-654"
       gradientUnits="userSpaceOnUse"
       gradientTransform="matrix(2.4045407,0,0,0.99999998,-22.014244,-102.5)" /><linearGradient
       x1="25.058096"
       y1="47.027729"
       x2="25.058096"
       y2="39.999443"
       id="linearGradient6394"
       xlink:href="#linearGradient3702-501-757-795"
       gradientUnits="userSpaceOnUse"
       gradientTransform="matrix(1.5714286,0,0,0.7142857,-5.7142853,27.928572)" /><style
       id="style1">.g{fill:#000;}.g,.h,.i{stroke-width:0px;}.h{fill:url(#e);}.i{fill:#fff;}</style><style
       id="style1-6">.cls-1{fill:#fff;}</style><style
       id="style1-67">.cls-1{fill:#fff;}</style><linearGradient
       xlink:href="#linearGradient4"
       id="linearGradient5"
       x1="33.5"
       y1="5"
       x2="33.5"
       y2="59"
       gradientUnits="userSpaceOnUse" /><linearGradient
       id="linearGradient24"><stop
         style="stop-color:#fafafa;stop-opacity:1;"
         offset="0"
         id="stop24" /><stop
         style="stop-color:#fafafa;stop-opacity:0;"
         offset="1"
         id="stop25" /></linearGradient><linearGradient
       id="linearGradient23"><stop
         offset="0"
         style="stop-color:#ffffff;stop-opacity:1"
         id="stop20" /><stop
         offset="0.13392857"
         style="stop-color:#ffffff;stop-opacity:0.23529412"
         id="stop21" /><stop
         offset="0.8660714"
         style="stop-color:#ffffff;stop-opacity:0.15686275"
         id="stop22" /><stop
         offset="1"
         style="stop-color:#ffffff;stop-opacity:0.39215687"
         id="stop23" /></linearGradient><linearGradient
       id="linearGradient2"><stop
         style="stop-color:#5865f2;stop-opacity:1;"
         offset="0"
         id="stop3-3" /><stop
         style="stop-color:#1f30f4;stop-opacity:1;"
         offset="1"
         id="stop4-5" /></linearGradient><style
       id="style1-53">.g{fill:#000;}.g,.h,.i{stroke-width:0px;}.h{fill:url(#e);}.i{fill:#fff;}</style><style
       id="style1-6-5">.cls-1{fill:#fff;}</style><style
       id="style1-67-6">.cls-1{fill:#fff;}</style><style
       id="style1-56">.g{fill:#000;}.g,.h,.i{stroke-width:0px;}.h{fill:url(#e);}.i{fill:#fff;}</style><style
       id="style1-7">.g{fill:#000;}.g,.h,.i{stroke-width:0px;}.h{fill:url(#e);}.i{fill:#fff;}</style><style
       id="style1-5">.g{fill:#000;}.g,.h,.i{stroke-width:0px;}.h{fill:url(#e);}.i{fill:#fff;}</style><style
       id="style1-3">.g{fill:#000;}.g,.h,.i{stroke-width:0px;}.h{fill:url(#e);}.i{fill:#fff;}</style><style
       id="style1-6-1">.cls-1{fill:#fff;}</style><style
       id="style1-2">.g{fill:#000;}.g,.h,.i{stroke-width:0px;}.h{fill:url(#e);}.i{fill:#fff;}</style><style
       id="style1-6-8">.cls-1{fill:#fff;}</style><linearGradient
       xlink:href="#linearGradient4"
       id="linearGradient11"
       x1="32"
       y1="3"
       x2="32"
       y2="61"
       gradientUnits="userSpaceOnUse" /><linearGradient
       xlink:href="#linearGradient23"
       id="linearGradient20"
       x1="32"
       y1="4"
       x2="32"
       y2="60"
       gradientUnits="userSpaceOnUse" /><linearGradient
       xlink:href="#linearGradient24"
       id="linearGradient25"
       x1="53.554375"
       y1="59.875896"
       x2="52.482929"
       y2="55.161541"
       gradientUnits="userSpaceOnUse" /><linearGradient
       id="linearGradient3820-7-2"><stop
         offset="0"
         style="stop-color:#000000;stop-opacity:1"
         id="stop3822-2-6" /><stop
         offset="1"
         style="stop-color:#000000;stop-opacity:0"
         id="stop3824-1-2" /></linearGradient><radialGradient
       xlink:href="#linearGradient3820-7-2"
       id="radialGradient3"
       gradientUnits="userSpaceOnUse"
       gradientTransform="matrix(0.3823536,7.5555777e-8,-1.8372241e-8,0.1115198,-5.9254271,36.335849)"
       cx="99.189415"
       cy="185.29727"
       fx="99.189415"
       fy="185.29727"
       r="62.769119" /><radialGradient
       xlink:href="#linearGradient3820-7-2"
       id="radialGradient4"
       gradientUnits="userSpaceOnUse"
       gradientTransform="matrix(0.2549024,5.3967361e-8,-1.2248161e-8,0.07965545,6.7163816,44.240666)"
       cx="99.189415"
       cy="185.29727"
       fx="99.189415"
       fy="185.29727"
       r="62.769119" /></defs><g
     id="g3"
     transform="matrix(1.3333333,0,0,1.3544917,-10.666665,-23.208466)"
     style="opacity:0.5;stroke-width:0.881919"><path
       d="m 55.999998,57.0017 a 24,6.9985714 0 1 1 -47.9999991,0 24,6.9985714 0 1 1 47.9999991,0 z"
       id="path2"
       style="opacity:0.2;fill:url(#radialGradient3);fill-opacity:1;stroke:none;stroke-width:0.881919" /><path
       style="opacity:0.4;fill:url(#radialGradient4);fill-opacity:1;stroke:none;stroke-width:0.881919"
       id="path3"
       d="m 47.999998,59.0017 a 16,4.9988822 0 1 1 -31.999999,0 16,4.9988822 0 1 1 31.999999,0 z" /></g><path
     d="m 32,3.0097656 c 16.01678,0 28.99023,12.9736794 28.99023,28.9882814 -0.0219,5.127786 -1.4035,10.158485 -4.0039,14.578125 -0.53019,0.901373 -1.10897,1.773087 -1.73438,2.613281 -1.5931,2.154905 -3.47813,4.077493 -5.59961,5.714844 -0.1516,0.257245 -0.1516,0.257245 -0.17382,0.55664 0.70971,2.263441 2.20641,3.923207 4.01562,4.396485 -1.78187,1.970254 -4.31245,3.123218 -6.99023,3.132812 -2.52352,-0.02245 -4.93232,-1.04975 -6.69727,-2.853515 C 39.58049,59.966286 39.50623,59.993012 39.30859,60.001953 36.92306,60.641603 34.46631,60.973609 32,60.990234 15.983224,60.990234 3.009766,48.016776 3.009766,32 3.009766,15.983224 15.983224,3.0097656 32,3.0097656 Z"
     style="opacity:1;fill:url(#linearGradient11);stroke:none;stroke-linejoin:round;stroke-opacity:0.501961"
     id="path9"
     sodipodi:nodetypes="sccccccccccss" /><circle
     style="opacity:1;fill:none;stroke:url(#linearGradient20);stroke-width:1;stroke-linejoin:round;stroke-dasharray:none;stroke-opacity:1"
     id="path11"
     cx="32"
     cy="32"
     r="28.5" /><path
     style="opacity:1;fill:url(#linearGradient25);stroke:none;stroke-width:1;stroke-linejoin:round;stroke-dasharray:none;stroke-opacity:1"
     d="m 53.55437,59.875898 c -3.41053,0.724562 -6.57296,0.880228 -8.82023,-1.822117 1.46932,-0.724217 3.04408,-1.67066 4.7666,-2.892239 0.50807,2.585214 2.24363,4.22362 4.05363,4.714356 z"
     id="path23-1" /><path
     d="M 32,2.5 C 15.7076,2.5 2.5,15.7076 2.5,32 c 0,16.2924 13.2076,29.5 29.5,29.5 2.51319,-0.01693 5.01391,-0.354957 7.44141,-1.005859 1.85965,1.900553 4.39967,2.982204 7.05859,3.005859 3.1376,-0.0112 6.08804,-1.49437 7.96875,-4.005859 -1.95706,-0.04077 -3.71717,-1.67647 -4.50391,-4.185547 2.1588,-1.666155 4.07614,-3.623595 5.69727,-5.816407 0.6354,-0.853609 1.22415,-1.740973 1.76367,-2.658203 C 60.07188,42.336672 61.47776,37.217968 61.5,32 61.5,15.7076 48.2924,2.5 32,2.5 Z"
     style="opacity:1;fill:none;stroke:#7e8087;stroke-linejoin:round;stroke-opacity:0.501961"
     id="path4" /><path
     id="path29-7"
     style="opacity:0.150149;fill:#000000;fill-opacity:1;stroke:#000000;stroke-width:2;stroke-linecap:round;stroke-linejoin:round;stroke-opacity:1"
     d="m 26,15 a 4,4 0 0 0 -4,4 4,4 0 0 0 4,4 h 4 v -4 a 4,4 0 0 0 -4,-4 z m 9.92969,0 C 33.75308,15 32,16.784004 32,19 v 10 c 0,2.215996 1.75308,4 3.92969,4 h 0.14062 C 38.24692,33 40,31.215996 40,29 V 19 c 0,-2.215996 -1.75308,-4 -3.92969,-4 z M 16,25 c -2.215996,0 -4,1.784004 -4,4 0,2.215996 1.784004,4 4,4 h 10 c 2.216,0 4,-1.784004 4,-4 0,-2.215996 -1.784,-4 -4,-4 z m 30,0 a 4,4 0 0 0 -4,4 v 4 h 4 a 4,4 0 0 0 4,-4 4,4 0 0 0 -4,-4 z M 16,35 a 4,4 0 0 0 -4,4 4,4 0 0 0 4,4 4,4 0 0 0 4,-4 v -4 z m 9.982422,0 C 23.7759,35 22,36.784004 22,39 v 10 c 0,2.215996 1.7759,4 3.982422,4 h 0.03516 C 28.2241,53 30,51.215996 30,49 V 39 c 0,-2.215996 -1.7759,-4 -3.98242,-4 z M 36,35 c -2.216,0 -4,1.749689 -4,3.923828 v 0.152344 C 32,41.250311 33.784,43 36,43 h 10 c 2.216,0 4,-1.749689 4,-3.923828 V 38.923828 C 50,36.749689 48.216,35 46,35 Z m -4,10 v 4 a 4,4 0 0 0 4,4 4,4 0 0 0 4,-4 4,4 0 0 0 -4,-4 z" /><path
     id="path26-0"
     style="opacity:0.14952;fill:#000000;fill-opacity:1;stroke:none;stroke-width:2;stroke-linecap:round;stroke-linejoin:round;stroke-opacity:1"
     d="m 26,15 a 4,4 0 0 0 -4,4 4,4 0 0 0 4,4 h 4 v -4 a 4,4 0 0 0 -4,-4 z m 9.92969,0 C 33.75308,15 32,16.784004 32,19 v 10 c 0,2.215996 1.75308,4 3.92969,4 h 0.14062 C 38.24692,33 40,31.215996 40,29 V 19 c 0,-2.215996 -1.75308,-4 -3.92969,-4 z M 16,25 c -2.215996,0 -4,1.784004 -4,4 0,2.215996 1.784004,4 4,4 h 10 c 2.216,0 4,-1.784004 4,-4 0,-2.215996 -1.784,-4 -4,-4 z m 30,0 a 4,4 0 0 0 -4,4 v 4 h 4 a 4,4 0 0 0 4,-4 4,4 0 0 0 -4,-4 z M 16,35 a 4,4 0 0 0 -4,4 4,4 0 0 0 4,4 4,4 0 0 0 4,-4 v -4 z m 9.982422,0 C 23.7759,35 22,36.784004 22,39 v 10 c 0,2.215996 1.7759,4 3.982422,4 h 0.03516 C 28.2241,53 30,51.215996 30,49 V 39 c 0,-2.215996 -1.7759,-4 -3.98242,-4 z M 36,35 c -2.216,0 -4,1.749689 -4,3.923828 v 0.152344 C 32,41.250311 33.784,43 36,43 h 10 c 2.216,0 4,-1.749689 4,-3.923828 V 38.923828 C 50,36.749689 48.216,35 46,35 Z m -4,10 v 4 a 4,4 0 0 0 4,4 4,4 0 0 0 4,-4 4,4 0 0 0 -4,-4 z" /><path
     id="rect7-9"
     style="fill:#1882d4;fill-opacity:1;stroke:none;stroke-width:2;stroke-linecap:round;stroke-linejoin:round;stroke-opacity:1"
     d="m 26,14 a 4,4 0 0 0 -4,4 4,4 0 0 0 4,4 h 4 V 18 A 4,4 0 0 0 26,14 Z M 16,24 c -2.215998,0 -4,1.784002 -4,4 0,2.215998 1.784002,4 4,4 h 10 c 2.216,0 4,-1.784002 4,-4 0,-2.215998 -1.784,-4 -4,-4 z" /><path
     id="rect8-3"
     style="fill:#a91149;fill-opacity:1;stroke:none;stroke-width:2;stroke-linecap:round;stroke-linejoin:round;stroke-opacity:1"
     d="m 16,34 a 4,4 0 0 0 -4,4 4,4 0 0 0 4,4 4,4 0 0 0 4,-4 v -4 z m 9.982422,0 C 23.775898,34 22,35.784002 22,38 v 10 c 0,2.215998 1.775898,4 3.982422,4 h 0.03516 C 28.2241,52 30,50.215998 30,48 V 38 c 0,-2.215998 -1.7759,-4 -3.98242,-4 z" /><path
     id="rect9-6"
     style="fill:#c07b11;fill-opacity:1;stroke:none;stroke-width:2;stroke-linecap:round;stroke-linejoin:round;stroke-opacity:1"
     d="m 36,34 c -2.216,0 -4,1.749687 -4,3.923828 v 0.152344 C 32,40.250313 33.784,42 36,42 h 10 c 2.216,0 4,-1.749687 4,-3.923828 V 37.923828 C 50,35.749687 48.216,34 46,34 Z m -4,10 v 4 a 4,4 0 0 0 4,4 4,4 0 0 0 4,-4 4,4 0 0 0 -4,-4 z" /><path
     id="rect6-0"
     style="fill:#1e7a45;fill-opacity:1;stroke:none;stroke-width:2;stroke-linecap:round;stroke-linejoin:round;stroke-opacity:1"
     d="M 35.92969,14 C 33.75308,14 32,15.784002 32,18 v 10 c 0,2.215998 1.75308,4 3.92969,4 h 0.14062 C 38.24692,32 40,30.215998 40,28 V 18 c 0,-2.215998 -1.75308,-4 -3.92969,-4 z M 46,24 a 4,4 0 0 0 -4,4 v 4 h 4 a 4,4 0 0 0 4,-4 4,4 0 0 0 -4,-4 z" /><path
     id="path18-6"
     style="fill:#1da1eb;fill-opacity:1;stroke:none;stroke-width:2;stroke-linecap:round;stroke-linejoin:round;stroke-opacity:1"
     d="M 26,14 A 4,4 0 0 0 22.056641,17.5 4,4 0 0 0 26,21 h 4 V 18 A 4,4 0 0 0 26,14 Z M 16,24 c -2.046243,0 -3.719786,1.522198 -3.964844,3.5 C 12.280214,29.477802 13.953757,31 16,31 h 10 c 2.04624,0 3.71979,-1.522198 3.96484,-3.5 C 29.71979,25.522198 28.04624,24 26,24 Z" /><path
     id="path19-2"
     style="fill:#1ab9ff;fill-opacity:1;stroke:none;stroke-width:2;stroke-linecap:round;stroke-linejoin:round;stroke-opacity:1"
     d="M 26,14 A 4,4 0 0 0 22.138672,17 4,4 0 0 0 26,20 h 4 V 18 A 4,4 0 0 0 26,14 Z M 16,24 c -1.869833,0 -3.428636,1.271887 -3.871094,3 0.442458,1.728113 2.001261,3 3.871094,3 h 10 c 1.86983,0 3.42864,-1.271887 3.87109,-3 C 29.42864,25.271887 27.86983,24 26,24 Z" /><path
     id="path20-6"
     style="fill:#2e9850;fill-opacity:1;stroke:none;stroke-width:2;stroke-linecap:round;stroke-linejoin:round;stroke-opacity:1"
     d="M 35.92969,14 C 33.75308,14 32,15.784004 32,18 v 9 c 0,2.215996 1.75308,4 3.92969,4 h 0.14062 C 38.24692,31 40,29.215996 40,27 v -9 c 0,-2.215996 -1.75308,-4 -3.92969,-4 z M 46,24 a 4,4 0 0 0 -4,4 v 3 h 4 a 4,4 0 0 0 3.95508,-3.595703 4,4 0 0 0 0,-0.002 A 4,4 0 0 0 46,24 Z" /><path
     id="path21-1"
     style="fill:#41b658;fill-opacity:1;stroke:none;stroke-width:2;stroke-linecap:round;stroke-linejoin:round;stroke-opacity:1"
     d="M 35.92969,14 C 33.75308,14 32,15.784004 32,18 v 8 c 0,2.215996 1.75308,4 3.92969,4 h 0.14062 C 38.24692,30 40,28.215996 40,26 v -8 c 0,-2.215996 -1.75308,-4 -3.92969,-4 z M 46,24 a 4,4 0 0 0 -4,4 v 2 h 4 A 4,4 0 0 0 49.86719,26.986328 4,4 0 0 0 46,24 Z" /><path
     id="path22-8"
     style="fill:#e5a40f;fill-opacity:1;stroke:none;stroke-width:2;stroke-linecap:round;stroke-linejoin:round;stroke-opacity:1"
     d="m 36,34 c -2.06984,0 -3.7603,1.526934 -3.97461,3.5 C 32.2397,39.473066 33.93016,41 36,41 h 10 c 2.06984,0 3.7603,-1.526934 3.97461,-3.5 C 49.7603,35.526934 48.06984,34 46,34 Z m -4,10 v 3 a 4,4 0 0 0 4,4 4,4 0 0 0 3.95508,-3.595703 4,4 0 0 0 0,-0.002 A 4,4 0 0 0 36,44 Z" /><path
     id="path23-7"
     style="fill:#fcc003;fill-opacity:1;stroke:none;stroke-width:2;stroke-linecap:round;stroke-linejoin:round;stroke-opacity:1"
     d="m 36,34 c -1.89086,0 -3.46291,1.275472 -3.88477,3 0.42186,1.724528 1.99391,3 3.88477,3 h 10 c 1.89086,0 3.46291,-1.275472 3.88477,-3 C 49.46291,35.275472 47.89086,34 46,34 Z m -4,10 v 2 a 4,4 0 0 0 4,4 4,4 0 0 0 3.86719,-3.013672 A 4,4 0 0 0 36,44 Z" /><path
     id="path24-9"
     style="fill:#c40d55;fill-opacity:1;stroke:none;stroke-width:2;stroke-linecap:round;stroke-linejoin:round;stroke-opacity:1"
     d="M 16,34 A 4,4 0 0 0 12.056641,37.5 4,4 0 0 0 16,41 4,4 0 0 0 20,37 v -3 z m 9.982422,0 C 23.7759,34 22,35.784004 22,38 v 9 c 0,2.215996 1.7759,4 3.982422,4 h 0.03516 C 28.2241,51 30,49.215996 30,47 v -9 c 0,-2.215996 -1.7759,-4 -3.98242,-4 z" /><path
     id="path25-2"
     style="fill:#e3066a;fill-opacity:1;stroke:none;stroke-width:2;stroke-linecap:round;stroke-linejoin:round;stroke-opacity:1"
     d="M 16,34 A 4,4 0 0 0 12.138672,37 4,4 0 0 0 16,40 4,4 0 0 0 20,36 v -2 z m 9.982422,0 C 23.7759,34 22,35.784004 22,38 v 8 c 0,2.215996 1.7759,4 3.982422,4 h 0.03516 C 28.2241,50 30,48.215996 30,46 v -8 c 0,-2.215996 -1.7759,-4 -3.98242,-4 z" /></svg>
