<?xml version="1.0" encoding="UTF-8" standalone="no"?>
<svg
   id="svg4157"
   height="24"
   width="24"
   version="1.1"
   xml:space="preserve"
   sodipodi:docname="slack.svg"
   inkscape:version="1.4 (e7c3feb100, 2024-10-09)"
   xmlns:inkscape="http://www.inkscape.org/namespaces/inkscape"
   xmlns:sodipodi="http://sodipodi.sourceforge.net/DTD/sodipodi-0.dtd"
   xmlns:xlink="http://www.w3.org/1999/xlink"
   xmlns="http://www.w3.org/2000/svg"
   xmlns:svg="http://www.w3.org/2000/svg"
   xmlns:rdf="http://www.w3.org/1999/02/22-rdf-syntax-ns#"
   xmlns:cc="http://creativecommons.org/ns#"
   xmlns:dc="http://purl.org/dc/elements/1.1/"><sodipodi:namedview
     id="namedview1"
     pagecolor="#ffffff"
     bordercolor="#000000"
     borderopacity="0.25"
     inkscape:showpageshadow="2"
     inkscape:pageopacity="0.0"
     inkscape:pagecheckerboard="0"
     inkscape:deskcolor="#d1d1d1"
     showgrid="false"
     inkscape:zoom="2.185"
     inkscape:cx="-17.391304"
     inkscape:cy="16.24714"
     inkscape:current-layer="svg4157"><inkscape:grid
       id="grid1"
       units="px"
       originx="-34"
       originy="0"
       spacingx="0.5"
       spacingy="0.5"
       empcolor="#0099e5"
       empopacity="0.30196078"
       color="#0099e5"
       opacity="0.0784314"
       empspacing="2"
       enabled="true"
       visible="false" /><inkscape:page
       x="0"
       y="0"
       width="24"
       height="24"
       id="page2"
       margin="0"
       bleed="0" /></sodipodi:namedview><defs
     id="defs4159"><inkscape:path-effect
       effect="offset"
       id="path-effect3"
       is_visible="true"
       lpeversion="1.3"
       linejoin_type="miter"
       unit="px"
       offset="-0.5"
       miter_limit="4"
       attempt_force_join="false"
       update_on_knot_move="true" /><linearGradient
       gradientTransform="matrix(0.45945947,0,0,0.45945947,0.9742203,0.9717328)"
       gradientUnits="userSpaceOnUse"
       xlink:href="#linearGradient4095"
       id="linearGradient3233"
       y2="41.414463"
       x2="23.99999"
       y1="6.5909343"
       x1="23.99999" /><linearGradient
       id="linearGradient4095"><stop
         offset="0"
         style="stop-color:#ffffff;stop-opacity:1"
         id="stop4097" /><stop
         offset="0.03141704"
         style="stop-color:#ffffff;stop-opacity:0.23529412"
         id="stop4100" /><stop
         offset="0.96875"
         style="stop-color:#ffffff;stop-opacity:0.15686275"
         id="stop4102" /><stop
         offset="1"
         style="stop-color:#ffffff;stop-opacity:0.39215687"
         id="stop4104" /></linearGradient><radialGradient
       gradientTransform="matrix(2.003784,0,0,1.4,27.98813,-17.4)"
       gradientUnits="userSpaceOnUse"
       xlink:href="#linearGradient3688-166-749-9"
       id="radialGradient3082-6"
       fy="43.5"
       fx="4.9929786"
       r="2.5"
       cy="43.5"
       cx="4.9929786" /><linearGradient
       id="linearGradient3688-166-749-9"><stop
         offset="0"
         style="stop-color:#181818;stop-opacity:1"
         id="stop2883-2" /><stop
         offset="1"
         style="stop-color:#181818;stop-opacity:0"
         id="stop2885-2" /></linearGradient><radialGradient
       gradientTransform="matrix(2.003784,0,0,1.4,-20.01187,-104.4)"
       gradientUnits="userSpaceOnUse"
       xlink:href="#linearGradient3688-464-309-7-6"
       id="radialGradient3084-4"
       fy="43.5"
       fx="4.9929786"
       r="2.5"
       cy="43.5"
       cx="4.9929786" /><linearGradient
       id="linearGradient3688-464-309-7-6"><stop
         offset="0"
         style="stop-color:#181818;stop-opacity:1"
         id="stop2889-75" /><stop
         offset="1"
         style="stop-color:#181818;stop-opacity:0"
         id="stop2891-4-9" /></linearGradient><linearGradient
       gradientUnits="userSpaceOnUse"
       xlink:href="#linearGradient3702-501-757-1"
       id="linearGradient3086-8"
       y2="39.999443"
       x2="25.058096"
       y1="47.027729"
       x1="25.058096" /><linearGradient
       id="linearGradient3702-501-757-1"><stop
         offset="0"
         style="stop-color:#181818;stop-opacity:0"
         id="stop2895-2" /><stop
         offset="0.5"
         style="stop-color:#181818;stop-opacity:1"
         id="stop2897-89" /><stop
         offset="1"
         style="stop-color:#181818;stop-opacity:0"
         id="stop2899-36" /></linearGradient><linearGradient
       xlink:href="#linearGradient4-6"
       id="linearGradient871"
       x1="11.428493"
       y1="2.5262616"
       x2="11.428493"
       y2="21.451086"
       gradientUnits="userSpaceOnUse" /><style
       id="style1">.g{fill:#000;}.g,.h,.i{stroke-width:0px;}.h{fill:url(#e);}.i{fill:#fff;}</style><style
       id="style1-7">.g{fill:#000;}.g,.h,.i{stroke-width:0px;}.h{fill:url(#e);}.i{fill:#fff;}</style><style
       id="style1-5">.g{fill:#000;}.g,.h,.i{stroke-width:0px;}.h{fill:url(#e);}.i{fill:#fff;}</style><linearGradient
       id="linearGradient4-6"><stop
         style="stop-color:#fafafa;stop-opacity:1;"
         offset="0"
         id="stop4-7" /><stop
         style="stop-color:#d4d4d4;stop-opacity:1;"
         offset="1"
         id="stop5" /></linearGradient><style
       id="style1-53">.g{fill:#000;}.g,.h,.i{stroke-width:0px;}.h{fill:url(#e);}.i{fill:#fff;}</style><style
       id="style1-6">.cls-1{fill:#fff;}</style><style
       id="style1-67">.cls-1{fill:#fff;}</style><linearGradient
       id="linearGradient25"><stop
         style="stop-color:#ffffff;stop-opacity:1;"
         offset="0"
         id="stop25" /><stop
         style="stop-color:#ffffff;stop-opacity:0;"
         offset="1"
         id="stop26" /></linearGradient><linearGradient
       id="linearGradient14"><stop
         id="stop9"
         style="stop-color:#ffffff;stop-opacity:1"
         offset="0" /><stop
         id="stop10"
         style="stop-color:#ffffff;stop-opacity:0.23529412"
         offset="0.19444445" /><stop
         id="stop11"
         style="stop-color:#ffffff;stop-opacity:0.15686275"
         offset="0.80555558" /><stop
         id="stop12"
         style="stop-color:#ffffff;stop-opacity:0.39215687"
         offset="1" /></linearGradient><style
       id="style1-535">.g{fill:#000;}.g,.h,.i{stroke-width:0px;}.h{fill:url(#e);}.i{fill:#fff;}</style><style
       id="style1-7-6">.g{fill:#000;}.g,.h,.i{stroke-width:0px;}.h{fill:url(#e);}.i{fill:#fff;}</style><style
       id="style1-5-2">.g{fill:#000;}.g,.h,.i{stroke-width:0px;}.h{fill:url(#e);}.i{fill:#fff;}</style><style
       id="style1-53-9">.g{fill:#000;}.g,.h,.i{stroke-width:0px;}.h{fill:url(#e);}.i{fill:#fff;}</style><style
       id="style1-6-1">.cls-1{fill:#fff;}</style><style
       id="style1-67-2">.cls-1{fill:#fff;}</style><linearGradient
       id="linearGradient3820-7-2-2"><stop
         offset="0"
         style="stop-color:#3d3d3d;stop-opacity:1"
         id="stop3822-2-6-36" /><stop
         offset="0.5"
         style="stop-color:#686868;stop-opacity:0.49803922"
         id="stop3864-8-7-6" /><stop
         offset="1"
         style="stop-color:#686868;stop-opacity:0"
         id="stop3824-1-2-4" /></linearGradient><style
       id="style1-75">.g{fill:#000;}.g,.h,.i{stroke-width:0px;}.h{fill:url(#e);}.i{fill:#fff;}</style><style
       id="style1-7-35">.g{fill:#000;}.g,.h,.i{stroke-width:0px;}.h{fill:url(#e);}.i{fill:#fff;}</style><style
       id="style1-5-6">.g{fill:#000;}.g,.h,.i{stroke-width:0px;}.h{fill:url(#e);}.i{fill:#fff;}</style><style
       id="style1-53-1">.g{fill:#000;}.g,.h,.i{stroke-width:0px;}.h{fill:url(#e);}.i{fill:#fff;}</style><style
       id="style1-6-2">.cls-1{fill:#fff;}</style><style
       id="style1-67-7">.cls-1{fill:#fff;}</style><style
       id="style1-675">.g{fill:#000;}.g,.h,.i{stroke-width:0px;}.h{fill:url(#e);}.i{fill:#fff;}</style><style
       id="style1-7-3">.g{fill:#000;}.g,.h,.i{stroke-width:0px;}.h{fill:url(#e);}.i{fill:#fff;}</style><style
       id="style1-5-5">.g{fill:#000;}.g,.h,.i{stroke-width:0px;}.h{fill:url(#e);}.i{fill:#fff;}</style><linearGradient
       id="linearGradient2-5"><stop
         style="stop-color:#5865f2;stop-opacity:1;"
         offset="0"
         id="stop3-3" /><stop
         style="stop-color:#1f30f4;stop-opacity:1;"
         offset="1"
         id="stop4-5" /></linearGradient><style
       id="style1-3">.g{fill:#000;}.g,.h,.i{stroke-width:0px;}.h{fill:url(#e);}.i{fill:#fff;}</style><style
       id="style1-6-6">.cls-1{fill:#fff;}</style><style
       id="style1-70">.g{fill:#000;}.g,.h,.i{stroke-width:0px;}.h{fill:url(#e);}.i{fill:#fff;}</style><style
       id="style1-6-3">.cls-1{fill:#fff;}</style><style
       id="style1-2">.g{fill:#000;}.g,.h,.i{stroke-width:0px;}.h{fill:url(#e);}.i{fill:#fff;}</style><style
       id="style1-6-8">.cls-1{fill:#fff;}</style><radialGradient
       xlink:href="#linearGradient3820-7-2-2"
       id="radialGradient4"
       gradientUnits="userSpaceOnUse"
       gradientTransform="matrix(0.15931401,0,0,0.05069083,-3.797101,11.381075)"
       cx="99.157013"
       cy="186.17059"
       fx="99.157013"
       fy="186.17059"
       r="62.769119" /><linearGradient
       xlink:href="#linearGradient14"
       id="linearGradient9"
       x1="12"
       y1="3"
       x2="12"
       y2="21"
       gradientUnits="userSpaceOnUse" /><linearGradient
       xlink:href="#linearGradient4-6"
       id="linearGradient24"
       x1="12"
       y1="2"
       x2="12"
       y2="22"
       gradientUnits="userSpaceOnUse"
       gradientTransform="translate(34)" /><linearGradient
       xlink:href="#linearGradient25"
       id="linearGradient26"
       x1="18.337318"
       y1="23.034569"
       x2="17.71455"
       y2="20.534698"
       gradientUnits="userSpaceOnUse" /></defs><metadata
     id="metadata4162"><rdf:RDF><cc:Work
         rdf:about=""><dc:format>image/svg+xml</dc:format><dc:type
           rdf:resource="http://purl.org/dc/dcmitype/StillImage" /></cc:Work></rdf:RDF></metadata><path
     d="m 22,20.818212 a 10,3.181818 0 0 1 -20,0 10,3.181818 0 1 1 20,0 z"
     id="path4"
     style="opacity:0.5;fill:url(#radialGradient4);fill-opacity:1;stroke:none;stroke-width:1" /><path
     d="m 46,2.0097656 c 5.523366,0 9.990227,4.4676064 9.990234,9.9882814 -0.0086,1.629401 -0.416504,3.23196 -1.1875,4.669922 -0.255586,0.481639 -0.54866,0.941332 -0.880859,1.376953 -0.679775,0.9008 -1.507195,1.678396 -2.447266,2.302734 l -0.34375,0.228516 0.150391,0.382812 c 0.233912,0.595449 0.611552,1.103937 1.085937,1.466797 -0.553012,0.360046 -1.200179,0.5585 -1.863281,0.564453 -0.908424,-0.0081 -1.776052,-0.370849 -2.421875,-1.009765 l -0.1875,-0.183594 -0.259765,0.04492 C 47.093444,21.936343 46.545404,21.985874 46,21.990234 40.476634,21.990234 36.009766,17.523366 36.009766,12 36.009766,6.4766345 40.476634,2.0097656 46,2.0097656 Z"
     style="opacity:1;fill:url(#linearGradient24);stroke:none;stroke-width:1;stroke-linejoin:round;stroke-dasharray:none;stroke-opacity:0.501961"
     id="path20"
     inkscape:path-effect="#path-effect3"
     inkscape:original-d="m 46,1.5 c -5.79899,0 -10.5,4.7010101 -10.5,10.5 0,5.79899 4.70101,10.5 10.5,10.5 0.577539,-0.0046 1.153712,-0.05688 1.722656,-0.15625 0.740052,0.732138 1.736375,1.146923 2.777344,1.15625 1.035253,-0.0092 2.026604,-0.419492 2.765625,-1.144531 -0.665104,-0.251578 -1.212412,-0.825084 -1.509766,-1.582032 0.98806,-0.65621 1.85779,-1.475091 2.572266,-2.421875 0.347519,-0.455699 0.657147,-0.939084 0.925781,-1.445312 C 56.063169,15.396927 56.490965,13.712565 56.5,12 56.5,6.2010101 51.79899,1.5 46,1.5 Z"
     transform="translate(-34)" /><circle
     style="opacity:1;fill:none;stroke:url(#linearGradient9);stroke-linejoin:round;stroke-opacity:1"
     id="path8"
     cx="12"
     cy="12"
     r="9.5" /><path
     style="opacity:1;fill:url(#linearGradient26);stroke:none;stroke-width:1;stroke-linejoin:round;stroke-dasharray:none;stroke-opacity:0.501961"
     d="m 18.386519,22.413035 c -0.627875,-0.386249 -1.022943,-1.012361 -1.185203,-1.878336 -0.495598,0.306883 -1.05998,0.546746 -1.640236,0.783081 0.509708,0.841282 1.469158,1.227532 2.825439,1.095255 z"
     id="path24" /><path
     d="M 12,1.5 C 6.20101,1.5 1.5,6.2010101 1.5,12 c 0,5.79899 4.70101,10.5 10.5,10.5 0.577539,-0.0046 1.153712,-0.05688 1.722656,-0.15625 0.740052,0.732138 1.736375,1.146923 2.777344,1.15625 1.035253,-0.0092 2.026604,-0.419492 2.765625,-1.144531 -0.665104,-0.251578 -1.212412,-0.825084 -1.509766,-1.582032 0.98806,-0.65621 1.85779,-1.475091 2.572266,-2.421875 0.347519,-0.455699 0.657147,-0.939084 0.925781,-1.445312 C 22.063169,15.396927 22.490965,13.712565 22.5,12 22.5,6.2010101 17.79899,1.5 12,1.5 Z"
     style="opacity:1;fill:none;fill-opacity:1;stroke:#7e8087;stroke-width:1;stroke-linejoin:round;stroke-dasharray:none;stroke-opacity:0.501961"
     id="path3" /><path
     id="path36-9"
     style="opacity:0.150245;fill:#000000;fill-opacity:1;stroke:#000000;stroke-width:2;stroke-linejoin:round;stroke-opacity:1"
     d="m 10,7 a 1,1 0 0 0 -1,1 1,1 0 0 0 1,1 h 1 V 8 A 1,1 0 0 0 10,7 Z m 4,0 a 0.99999499,0.99999499 0 0 0 -1,1 v 3 a 1,1 0 0 0 1,1 1,1 0 0 0 1,-1 V 8 A 0.99999499,0.99999499 0 0 0 14,7 Z m -7,3 a 0.99999499,0.99999499 0 0 0 -1,1 0.99999499,0.99999499 0 0 0 1,1 h 3 a 1,1 0 0 0 1,-1 1,1 0 0 0 -1,-1 z m 10,0 a 1,1 0 0 0 -1,1 v 1 h 1 a 1,1 0 0 0 1,-1 1,1 0 0 0 -1,-1 z M 7,14 a 1,1 0 0 0 -1,1 1,1 0 0 0 1,1 1,1 0 0 0 1,-1 v -1 z m 3,0 a 1,1 0 0 0 -1,1 v 3 a 1,1 0 0 0 1,1 1,1 0 0 0 1,-1 v -3 a 1,1 0 0 0 -1,-1 z m 4,0 a 0.99998999,0.99998999 0 0 0 -1,1 0.99998999,0.99998999 0 0 0 1,1 h 3 a 0.99998999,0.99998999 0 0 0 1,-1 0.99998999,0.99998999 0 0 0 -1,-1 z m -1,3 v 1 a 1,1 0 0 0 1,1 1,1 0 0 0 1,-1 1,1 0 0 0 -1,-1 z" /><path
     id="path33-3"
     style="opacity:0.149887;fill:#000000;fill-opacity:1;stroke:none;stroke-width:2;stroke-linejoin:round"
     d="m 10,7 a 1,1 0 0 0 -1,1 1,1 0 0 0 1,1 h 1 V 8 A 1,1 0 0 0 10,7 Z m 4,0 a 0.99999499,0.99999499 0 0 0 -1,1 v 3 a 1,1 0 0 0 1,1 1,1 0 0 0 1,-1 V 8 A 0.99999499,0.99999499 0 0 0 14,7 Z m -7,3 a 0.99999499,0.99999499 0 0 0 -1,1 0.99999499,0.99999499 0 0 0 1,1 h 3 a 1,1 0 0 0 1,-1 1,1 0 0 0 -1,-1 z m 10,0 a 1,1 0 0 0 -1,1 v 1 h 1 a 1,1 0 0 0 1,-1 1,1 0 0 0 -1,-1 z M 7,14 a 1,1 0 0 0 -1,1 1,1 0 0 0 1,1 1,1 0 0 0 1,-1 v -1 z m 3,0 a 1,1 0 0 0 -1,1 v 3 a 1,1 0 0 0 1,1 1,1 0 0 0 1,-1 v -3 a 1,1 0 0 0 -1,-1 z m 4,0 a 0.99998999,0.99998999 0 0 0 -1,1 0.99998999,0.99998999 0 0 0 1,1 h 3 a 0.99998999,0.99998999 0 0 0 1,-1 0.99998999,0.99998999 0 0 0 -1,-1 z m -1,3 v 1 a 1,1 0 0 0 1,1 1,1 0 0 0 1,-1 1,1 0 0 0 -1,-1 z" /><path
     id="path2-6"
     style="fill:#1da1eb;fill-opacity:1;stroke:none;stroke-width:2;stroke-linejoin:round"
     d="m 10,6 a 1,1 0 0 0 -1,1 1,1 0 0 0 1,1 h 1 V 7 A 1,1 0 0 0 10,6 Z M 7,9 a 0.99999499,0.99999499 0 0 0 -1,1 0.99999499,0.99999499 0 0 0 1,1 h 3 a 1,1 0 0 0 1,-1 1,1 0 0 0 -1,-1 z" /><path
     id="path6-0"
     style="fill:#2e9850;fill-opacity:1;stroke:none;stroke-width:2;stroke-linejoin:round"
     d="m 14,6 a 0.99999499,0.99999499 0 0 0 -1,1 v 3 a 1,1 0 0 0 1,1 1,1 0 0 0 1,-1 V 7 A 0.99999499,0.99999499 0 0 0 14,6 Z m 3,3 a 1,1 0 0 0 -1,1 v 1 h 1 a 1,1 0 0 0 1,-1 1,1 0 0 0 -1,-1 z" /><path
     id="path10-6"
     style="fill:#c40d55;fill-opacity:1;stroke:none;stroke-width:2;stroke-linejoin:round"
     d="m 7,13 a 1,1 0 0 0 -1,1 1,1 0 0 0 1,1 1,1 0 0 0 1,-1 v -1 z m 3,0 a 1,1 0 0 0 -1,1 v 3 a 1,1 0 0 0 1,1 1,1 0 0 0 1,-1 v -3 a 1,1 0 0 0 -1,-1 z" /><path
     id="path13-2"
     style="fill:#e5a40f;fill-opacity:1;stroke:none;stroke-width:2;stroke-linejoin:round"
     d="m 14,13 a 0.99998999,0.99998999 0 0 0 -1,1 0.99998999,0.99998999 0 0 0 1,1 h 3 a 0.99998999,0.99998999 0 0 0 1,-1 0.99998999,0.99998999 0 0 0 -1,-1 z m -1,3 v 1 a 1,1 0 0 0 1,1 1,1 0 0 0 1,-1 1,1 0 0 0 -1,-1 z" /><path
     id="path37-6"
     style="fill:#41b658;fill-opacity:1;stroke:none;stroke-width:2;stroke-linejoin:round"
     d="m 14,6 a 0.99999499,0.99999499 0 0 0 -1,1 v 2 a 1,1 0 0 0 1,1 1,1 0 0 0 1,-1 V 7 A 0.99999499,0.99999499 0 0 0 14,6 Z m 3,3 a 1,1 0 0 0 -1,1 h 1 A 1,1 0 0 0 17.863281,9.4941406 1,1 0 0 0 17,9 Z" /><path
     id="path38-1"
     style="fill:#1ab9ff;fill-opacity:1;stroke:none;stroke-width:2;stroke-linejoin:round"
     d="M 10,6 A 1,1 0 0 0 9.140625,6.5 1,1 0 0 0 10,7 h 1 A 1,1 0 0 0 10,6 Z M 7,9 A 0.99999499,0.99999499 0 0 0 6.140625,9.5 0.99999499,0.99999499 0 0 0 7,10 h 3 A 1,1 0 0 0 10.863281,9.4941406 1,1 0 0 0 10,9 Z" /><path
     id="path39-8"
     style="fill:#fcc003;fill-opacity:1;stroke:none;stroke-width:2;stroke-linejoin:round"
     d="M 14,13 A 0.99998999,0.99998999 0 0 0 13.140625,13.5 0.99998999,0.99998999 0 0 0 14,14 h 3 A 0.99998999,0.99998999 0 0 0 17.865234,13.5 0.99998999,0.99998999 0 0 0 17,13 Z m -1,3 a 1,1 0 0 0 1,1 1,1 0 0 0 0.863281,-0.505859 A 1,1 0 0 0 14,16 Z" /><path
     id="path41-7"
     style="fill:#e3066a;fill-opacity:1;stroke:none;stroke-width:2;stroke-linejoin:round"
     d="M 7,13 A 1,1 0 0 0 6.140625,13.5 1,1 0 0 0 7,14 1,1 0 0 0 8,13 Z m 3,0 a 1,1 0 0 0 -1,1 v 2 a 1,1 0 0 0 1,1 1,1 0 0 0 1,-1 v -2 a 1,1 0 0 0 -1,-1 z" /></svg>
