<?xml version="1.0" encoding="UTF-8" standalone="no"?>
<svg
   width="128"
   height="128"
   viewBox="0 0 128 128"
   fill="none"
   version="1.1"
   id="svg4"
   xml:space="preserve"
   sodipodi:docname="slack.svg"
   inkscape:version="1.4 (e7c3feb100, 2024-10-09)"
   xmlns:inkscape="http://www.inkscape.org/namespaces/inkscape"
   xmlns:sodipodi="http://sodipodi.sourceforge.net/DTD/sodipodi-0.dtd"
   xmlns:xlink="http://www.w3.org/1999/xlink"
   xmlns="http://www.w3.org/2000/svg"
   xmlns:svg="http://www.w3.org/2000/svg"><sodipodi:namedview
     id="namedview1"
     pagecolor="#ffffff"
     bordercolor="#000000"
     borderopacity="0.25"
     inkscape:showpageshadow="2"
     inkscape:pageopacity="0.0"
     inkscape:pagecheckerboard="0"
     inkscape:deskcolor="#d1d1d1"
     showgrid="false"
     inkscape:zoom="2.185"
     inkscape:cx="60.411899"
     inkscape:cy="46.453089"
     inkscape:current-layer="svg4"><inkscape:page
       x="0"
       y="0"
       width="128"
       height="128"
       id="page2"
       margin="0"
       bleed="0" /><inkscape:grid
       id="grid2"
       units="px"
       originx="-138"
       originy="0"
       spacingx="0.5"
       spacingy="0.5"
       empcolor="#0099e5"
       empopacity="0.30196078"
       color="#0099e5"
       opacity="0.0784314"
       empspacing="2"
       enabled="true"
       visible="false" /></sodipodi:namedview><defs
     id="defs4"><inkscape:path-effect
       effect="offset"
       id="path-effect2"
       is_visible="true"
       lpeversion="1.3"
       linejoin_type="miter"
       unit="px"
       offset="-0.5"
       miter_limit="4"
       attempt_force_join="false"
       update_on_knot_move="true" /><linearGradient
       id="linearGradient3688-166-749-654"><stop
         offset="0"
         style="stop-color:#181818;stop-opacity:1"
         id="stop3088" /><stop
         offset="1"
         style="stop-color:#181818;stop-opacity:0"
         id="stop3090" /></linearGradient><linearGradient
       id="linearGradient3702-501-757-795"><stop
         offset="0"
         style="stop-color:#181818;stop-opacity:0"
         id="stop3100" /><stop
         offset="0.5"
         style="stop-color:#181818;stop-opacity:1"
         id="stop3102" /><stop
         offset="1"
         style="stop-color:#181818;stop-opacity:0"
         id="stop3104" /></linearGradient><linearGradient
       id="linearGradient4113"><stop
         id="stop4115"
         style="stop-color:#000000;stop-opacity:1"
         offset="0" /><stop
         id="stop4117"
         style="stop-color:#000000;stop-opacity:0"
         offset="1" /></linearGradient><linearGradient
       gradientTransform="matrix(2.7297298,0,0,2.7297298,-1.51351,1.486514)"
       gradientUnits="userSpaceOnUse"
       xlink:href="#linearGradient3924-776"
       id="linearGradient3159"
       y2="42.499989"
       x2="23.999998"
       y1="5.49999"
       x1="23.999998" /><linearGradient
       id="linearGradient3924-776"><stop
         offset="0"
         style="stop-color:#ffffff;stop-opacity:1"
         id="stop3124" /><stop
         offset="0.08792076"
         style="stop-color:#ffffff;stop-opacity:0.23529412"
         id="stop3126" /><stop
         offset="0.91089112"
         style="stop-color:#ffffff;stop-opacity:0.15686275"
         id="stop3128" /><stop
         offset="1"
         style="stop-color:#ffffff;stop-opacity:0.39215687"
         id="stop3130" /></linearGradient><radialGradient
       gradientTransform="matrix(2.003784,0,0,1.4,27.98813,-17.4)"
       gradientUnits="userSpaceOnUse"
       xlink:href="#linearGradient3688-166-749-654"
       id="radialGradient2455-1"
       fy="43.5"
       fx="4.9929786"
       r="2.5"
       cy="43.5"
       cx="4.9929786" /><radialGradient
       gradientTransform="matrix(2.003784,0,0,1.4,-20.01187,-104.4)"
       gradientUnits="userSpaceOnUse"
       xlink:href="#linearGradient3688-166-749-654"
       id="radialGradient2457-5"
       fy="43.5"
       fx="4.9929786"
       r="2.5"
       cy="43.5"
       cx="4.9929786" /><linearGradient
       gradientUnits="userSpaceOnUse"
       xlink:href="#linearGradient3702-501-757-795"
       id="linearGradient2459-7"
       y2="39.999443"
       x2="25.058096"
       y1="47.027729"
       x1="25.058096" /><radialGradient
       gradientTransform="matrix(1.5563924,0,0,0.16978827,70.27036,102.13029)"
       gradientUnits="userSpaceOnUse"
       xlink:href="#linearGradient4113"
       id="radialGradient4377"
       fy="93.467628"
       fx="-4.0287771"
       r="35.338131"
       cy="93.467628"
       cx="-4.0287771" /><style
       id="style1">.g{fill:#000;}.g,.h,.i{stroke-width:0px;}.h{fill:url(#e);}.i{fill:#fff;}</style><linearGradient
       xlink:href="#linearGradient4-5"
       id="linearGradient4"
       x1="66"
       y1="16"
       x2="66"
       y2="118.5"
       gradientUnits="userSpaceOnUse" /><style
       id="style1-6">.cls-1{fill:#fff;}</style><linearGradient
       id="linearGradient4-5"><stop
         style="stop-color:#fafafa;stop-opacity:1;"
         offset="0"
         id="stop4" /><stop
         style="stop-color:#d4d4d4;stop-opacity:1;"
         offset="1"
         id="stop5" /></linearGradient><style
       id="style1-1">.g{fill:#000;}.g,.h,.i{stroke-width:0px;}.h{fill:url(#e);}.i{fill:#fff;}</style><style
       id="style1-6-2">.cls-1{fill:#fff;}</style><style
       id="style1-67">.cls-1{fill:#fff;}</style><linearGradient
       id="linearGradient29"><stop
         style="stop-color:#ffffff;stop-opacity:1;"
         offset="0"
         id="stop29" /><stop
         style="stop-color:#ffffff;stop-opacity:0;"
         offset="1"
         id="stop30" /></linearGradient><linearGradient
       id="linearGradient12"><stop
         id="stop8"
         style="stop-color:#ffffff;stop-opacity:1"
         offset="0" /><stop
         id="stop9"
         style="stop-color:#ffffff;stop-opacity:0.23529412"
         offset="0.08018868" /><stop
         id="stop10"
         style="stop-color:#ffffff;stop-opacity:0.15686275"
         offset="0.91981131" /><stop
         id="stop11"
         style="stop-color:#ffffff;stop-opacity:0.39215687"
         offset="1" /></linearGradient><linearGradient
       id="linearGradient2"><stop
         style="stop-color:#5865f2;stop-opacity:1;"
         offset="0"
         id="stop3-3" /><stop
         style="stop-color:#1f30f4;stop-opacity:1;"
         offset="1"
         id="stop4-5" /></linearGradient><radialGradient
       gradientTransform="matrix(1.5563924,0,0,0.16978827,70.27036,102.13029)"
       gradientUnits="userSpaceOnUse"
       xlink:href="#linearGradient4113"
       id="radialGradient4377-5"
       fy="93.467628"
       fx="-4.0287771"
       r="35.338131"
       cy="93.467628"
       cx="-4.0287771" /><style
       id="style1-62">.g{fill:#000;}.g,.h,.i{stroke-width:0px;}.h{fill:url(#e);}.i{fill:#fff;}</style><style
       id="style1-6-9">.cls-1{fill:#fff;}</style><radialGradient
       xlink:href="#linearGradient4113"
       id="radialGradient4"
       gradientUnits="userSpaceOnUse"
       gradientTransform="matrix(0.3823536,7.5555777e-8,-1.8372241e-8,0.1115198,-5.9254271,36.335849)"
       cx="99.189415"
       cy="185.29727"
       fx="99.189415"
       fy="185.29727"
       r="62.769119" /><radialGradient
       xlink:href="#linearGradient4113"
       id="radialGradient5"
       gradientUnits="userSpaceOnUse"
       gradientTransform="matrix(0.2549024,5.3967361e-8,-1.2248161e-8,0.07965545,6.7163816,44.240666)"
       cx="99.189415"
       cy="185.29727"
       fx="99.189415"
       fy="185.29727"
       r="62.769119" /><style
       id="style1-9">.g{fill:#000;}.g,.h,.i{stroke-width:0px;}.h{fill:url(#e);}.i{fill:#fff;}</style><style
       id="style1-6-12">.cls-1{fill:#fff;}</style><style
       id="style1-67-1">.cls-1{fill:#fff;}</style><style
       id="style1-56">.g{fill:#000;}.g,.h,.i{stroke-width:0px;}.h{fill:url(#e);}.i{fill:#fff;}</style><style
       id="style1-7">.g{fill:#000;}.g,.h,.i{stroke-width:0px;}.h{fill:url(#e);}.i{fill:#fff;}</style><style
       id="style1-5">.g{fill:#000;}.g,.h,.i{stroke-width:0px;}.h{fill:url(#e);}.i{fill:#fff;}</style><style
       id="style1-3">.g{fill:#000;}.g,.h,.i{stroke-width:0px;}.h{fill:url(#e);}.i{fill:#fff;}</style><style
       id="style1-6-1">.cls-1{fill:#fff;}</style><style
       id="style1-2">.g{fill:#000;}.g,.h,.i{stroke-width:0px;}.h{fill:url(#e);}.i{fill:#fff;}</style><style
       id="style1-6-8">.cls-1{fill:#fff;}</style><linearGradient
       xlink:href="#linearGradient12"
       id="linearGradient8"
       x1="64"
       y1="14"
       x2="64"
       y2="120"
       gradientUnits="userSpaceOnUse" /><linearGradient
       xlink:href="#linearGradient4-5"
       id="linearGradient26"
       x1="64"
       y1="13"
       x2="64"
       y2="120.99023"
       gradientUnits="userSpaceOnUse" /><linearGradient
       xlink:href="#linearGradient29"
       id="linearGradient30"
       x1="101.85315"
       y1="126.12645"
       x2="97.222069"
       y2="108.93288"
       gradientUnits="userSpaceOnUse" /></defs><path
     d="m 119,118 c 0,3.31371 -24.62434,6 -55,6 -30.37566,0 -55,-2.68629 -55,-6 0,-3.31371 24.62434,-6 55,-6 30.37566,0 55,2.68629 55,6 z"
     id="path3041-2"
     style="color:#000000;display:inline;overflow:visible;visibility:visible;opacity:0.2;fill:url(#radialGradient4377-5);fill-opacity:1;fill-rule:nonzero;stroke:none;stroke-width:1;marker:none;enable-background:accumulate" /><g
     id="g4"
     transform="matrix(2.2690665,0,0,2.3050739,-8.61012,-27.054394)"
     style="opacity:0.5;stroke-width:0.437254"><path
       d="m 55.999998,57.0017 a 24,6.9985714 0 1 1 -47.9999991,0 24,6.9985714 0 1 1 47.9999991,0 z"
       id="path3"
       style="opacity:0.2;fill:url(#radialGradient4);fill-opacity:1;stroke:none;stroke-width:0.437254" /><path
       style="opacity:0.4;fill:url(#radialGradient5);fill-opacity:1;stroke:none;stroke-width:0.437254"
       id="path4"
       d="m 47.999998,59.0017 a 16,4.9988822 0 1 1 -31.999999,0 16,4.9988822 0 1 1 31.999999,0 z" /></g><path
     d="m 64,13.009766 c 29.823896,0 53.99022,24.166631 53.99023,53.986328 -0.0264,3.203487 -0.33829,6.397799 -0.93164,9.548828 -1.06774,5.847138 -3.09278,11.477373 -5.99609,16.666015 -3.6227,6.52997 -8.56089,12.237533 -14.501953,16.761723 l -0.306641,0.23242 0.140625,0.35937 c 1.841551,4.74054 4.940409,8.65774 8.832029,11.21485 -3.68435,2.71761 -8.136761,4.2072 -12.722654,4.21093 -5.76401,-0.05 -11.264882,-2.41262 -15.269531,-6.55859 l -0.207031,-0.21484 -0.28711,0.0742 C 72.574159,120.36307 68.29474,120.93381 64,120.99023 34.176104,120.99023 10.009766,96.823895 10.009766,67 10.009766,37.176105 34.176104,13.009766 64,13.009766 Z"
     style="opacity:1;fill:url(#linearGradient26);stroke:none;stroke-width:1;stroke-linejoin:round;stroke-dasharray:none;stroke-opacity:0.5"
     id="path19" /><path
     id="circle6"
     d="m 64,13.509766 c 29.55367,0 53.49023,23.93656 53.49023,53.490234 0,29.553674 -23.93656,53.49023 -53.49023,53.49023 C 34.44633,120.49023 10.50977,96.553674 10.50977,67 10.50977,37.446326 34.44633,13.509766 64,13.509766 Z"
     style="opacity:1;fill:none;fill-opacity:1;stroke:url(#linearGradient8);stroke-linejoin:round;stroke-opacity:1" /><path
     style="opacity:1;fill:url(#linearGradient30);fill-opacity:1;stroke:none;stroke-width:1;stroke-linejoin:round;stroke-dasharray:none;stroke-opacity:0.5"
     d="m 105.25,121.79688 c -7.25277,1.47648 -14.38688,-0.32975 -18.25806,-5.95264 3.42334,-1.65015 6.54785,-3.52881 9.37354,-5.63599 1.72225,5.10213 4.68376,8.96501 8.88452,11.58863 z"
     id="path29" /><path
     d="M 64,12.5 C 33.90048,12.5 9.5,36.900481 9.5,67 c 0,30.099519 24.40048,54.5 54.5,54.5 4.34206,-0.057 8.66176,-0.63266 12.86719,-1.71484 4.09954,4.24421 9.73222,6.66364 15.63281,6.71484 4.94221,-0.004 9.73897,-1.67285 13.61719,-4.73633 -4.08641,-2.47271 -7.34371,-6.48259 -9.24805,-11.38476 5.99718,-4.56692 10.98175,-10.32828 14.63867,-16.919926 2.92982,-5.236016 4.97491,-10.919896 6.05274,-16.822265 C 118.15898,73.458713 118.47338,70.23375 118.5,67 118.5,36.900481 94.09952,12.5 64,12.5 Z"
     style="opacity:1;fill:none;stroke:#7e8087;stroke-width:1;stroke-linejoin:round;stroke-dasharray:none;stroke-opacity:0.5"
     id="path2" /><path
     id="path30-0"
     style="opacity:0.15;fill:#000000;fill-opacity:1;stroke:#000000;stroke-width:2;stroke-linecap:round;stroke-linejoin:round;stroke-dasharray:none;stroke-opacity:1"
     d="m 54,30 a 8,8 0 0 0 -8,8 8,8 0 0 0 8,8 h 8 v -8 a 8,8 0 0 0 -8,-8 z m 19.85937,0 C 69.50615,30 66,33.568004 66,38 v 20 c 0,4.431996 3.50615,8 7.85937,8 h 0.28125 C 78.49384,66 82,62.431996 82,58 V 38 c 0,-4.431996 -3.50616,-8 -7.85938,-8 z M 34,50 c -4.432,0 -8,3.568004 -8,8 0,4.431996 3.568,8 8,8 h 20 c 4.432,0 8,-3.568004 8,-8 0,-4.431996 -3.568,-8 -8,-8 z m 60,0 a 8,8 0 0 0 -8,8 v 8 h 8 a 8,8 0 0 0 8,-8 8,8 0 0 0 -8,-8 z M 34,70 a 8,8 0 0 0 -8,8 8,8 0 0 0 8,8 8,8 0 0 0 8,-8 v -8 z m 19.96484,0 C 49.5518,70 46,73.568004 46,78 v 20 c 0,4.432 3.5518,8 7.96484,8 h 0.0703 C 58.44812,106 62,102.432 62,98 V 78 c 0,-4.431996 -3.5518,-8 -7.96484,-8 z M 74,70 c -4.432,0 -8,3.499374 -8,7.847656 v 0.304688 C 66,82.500626 69.568,86 74,86 h 20 c 4.432,0 8,-3.499374 8,-7.847656 V 77.847656 C 102,73.499374 98.432,70 94,70 Z m -8,20 v 8 a 8,8 0 0 0 8,8 8,8 0 0 0 8,-8 8,8 0 0 0 -8,-8 z" /><path
     id="path17-6"
     style="opacity:0.15;fill:#000000;fill-opacity:1;stroke:none;stroke-width:4;stroke-linecap:round;stroke-linejoin:round;stroke-opacity:1"
     d="m 54,30 a 8,8 0 0 0 -8,8 8,8 0 0 0 8,8 h 8 v -8 a 8,8 0 0 0 -8,-8 z m 19.85937,0 C 69.50615,30 66,33.568004 66,38 v 20 c 0,4.431996 3.50615,8 7.85937,8 h 0.28125 C 78.49384,66 82,62.431996 82,58 V 38 c 0,-4.431996 -3.50616,-8 -7.85938,-8 z M 34,50 c -4.432,0 -8,3.568004 -8,8 0,4.431996 3.568,8 8,8 h 20 c 4.432,0 8,-3.568004 8,-8 0,-4.431996 -3.568,-8 -8,-8 z m 60,0 a 8,8 0 0 0 -8,8 v 8 h 8 a 8,8 0 0 0 8,-8 8,8 0 0 0 -8,-8 z M 34,70 a 8,8 0 0 0 -8,8 8,8 0 0 0 8,8 8,8 0 0 0 8,-8 v -8 z m 19.96484,0 C 49.5518,70 46,73.568004 46,78 v 20 c 0,4.432 3.5518,8 7.96484,8 h 0.0703 C 58.44812,106 62,102.432 62,98 V 78 c 0,-4.431996 -3.5518,-8 -7.96484,-8 z M 74,70 c -4.432,0 -8,3.499374 -8,7.847656 v 0.304688 C 66,82.500626 69.568,86 74,86 h 20 c 4.432,0 8,-3.499374 8,-7.847656 V 77.847656 C 102,73.499374 98.432,70 94,70 Z m -8,20 v 8 a 8,8 0 0 0 8,8 8,8 0 0 0 8,-8 8,8 0 0 0 -8,-8 z" /><path
     id="rect7-0-2"
     style="fill:#1882d4;fill-opacity:1;stroke:none;stroke-width:4;stroke-linecap:round;stroke-linejoin:round;stroke-opacity:1"
     d="m 54,29 a 8,8 0 0 0 -8,8 8,8 0 0 0 8,8 h 8 V 37 A 8,8 0 0 0 54,29 Z M 34,49 c -4.432,0 -8,3.568004 -8,8 0,4.431996 3.568,8 8,8 h 20 c 4.432,0 8,-3.568004 8,-8 0,-4.431996 -3.568,-8 -8,-8 z" /><path
     id="rect8-9-6"
     style="fill:#a91149;fill-opacity:1;stroke:none;stroke-width:4;stroke-linecap:round;stroke-linejoin:round;stroke-opacity:1"
     d="m 34,69 a 8,8 0 0 0 -8,8 8,8 0 0 0 8,8 8,8 0 0 0 8,-8 v -8 z m 19.96484,0 C 49.5518,69 46,72.568004 46,77 v 20 c 0,4.432 3.5518,8 7.96484,8 h 0.0704 C 58.4482,105 62,101.432 62,97 V 77 c 0,-4.431996 -3.5518,-8 -7.96484,-8 z" /><path
     id="rect9-3-1"
     style="fill:#c07b11;fill-opacity:1;stroke:none;stroke-width:4;stroke-linecap:round;stroke-linejoin:round;stroke-opacity:1"
     d="m 74,69 c -4.432,0 -8,3.499374 -8,7.847656 v 0.304688 C 66,81.500626 69.568,85 74,85 h 20 c 4.432,0 8,-3.499374 8,-7.847656 V 76.847656 C 102,72.499374 98.432,69 94,69 Z m -8,20 v 8 a 8,8 0 0 0 8,8 8,8 0 0 0 8,-8 8,8 0 0 0 -8,-8 z" /><path
     id="rect6-6-8"
     style="fill:#1e7a45;fill-opacity:1;stroke:none;stroke-width:4;stroke-linecap:round;stroke-linejoin:round;stroke-opacity:1"
     d="M 73.85938,29 C 69.50616,29 66,32.568004 66,37 v 20 c 0,4.431996 3.50616,8 7.85938,8 h 0.28124 C 78.49384,65 82,61.431996 82,57 V 37 c 0,-4.431996 -3.50616,-8 -7.85938,-8 z M 94,49 a 8,8 0 0 0 -8,8 v 8 h 8 a 8,8 0 0 0 8,-8 8,8 0 0 0 -8,-8 z" /><path
     id="path9-7"
     style="fill:#e5a40f;fill-opacity:1;stroke:none;stroke-width:4;stroke-linecap:round;stroke-linejoin:round;stroke-opacity:1"
     d="m 74,69 c -4.31233,0 -7.79686,3.315616 -7.98242,7.5 C 66.20314,80.684384 69.68767,84 74,84 h 20 c 4.31233,0 7.79686,-3.315616 7.98242,-7.5 C 101.79686,72.315616 98.31233,69 94,69 Z m -8,20 v 7 a 8,8 0 0 0 8,8 8,8 0 0 0 7.9668,-7.703125 A 8,8 0 0 0 74,89 Z" /><path
     id="path10-9"
     style="fill:#fcc003;fill-opacity:1;stroke:none;stroke-width:4;stroke-linecap:round;stroke-linejoin:round;stroke-opacity:1"
     d="m 74,69 c -4.13981,0 -7.52466,3.053705 -7.95313,7 0.42847,3.946295 3.81332,7 7.95313,7 h 20 c 4.13981,0 7.52466,-3.053705 7.95312,-7 C 101.52466,72.053705 98.13981,69 94,69 Z m -8,20 v 6 a 8,8 0 0 0 8,8 8,8 0 0 0 7.9082,-7.197266 A 8,8 0 0 0 74,89 Z" /><path
     id="path11-2"
     style="fill:#2e9850;fill-opacity:1;stroke:none;stroke-width:4;stroke-linecap:round;stroke-linejoin:round;stroke-opacity:1"
     d="M 73.85937,29 C 69.50615,29 66,32.568004 66,37 v 19 c 0,4.431996 3.50615,8 7.85937,8 h 0.28125 C 78.49384,64 82,60.431996 82,56 V 37 c 0,-4.431996 -3.50616,-8 -7.85938,-8 z M 94,49 a 8,8 0 0 0 -8,8 v 7 h 8 A 8,8 0 0 0 101.9668,56.296875 8,8 0 0 0 94,49 Z" /><path
     id="path12-0"
     style="fill:#41b658;fill-opacity:1;stroke:none;stroke-width:4;stroke-linecap:round;stroke-linejoin:round;stroke-opacity:1"
     d="M 73.85937,29 C 69.50615,29 66,32.568004 66,37 v 18 c 0,4.431996 3.50615,8 7.85937,8 h 0.28125 C 78.49384,63 82,59.431996 82,55 V 37 c 0,-4.431996 -3.50616,-8 -7.85938,-8 z M 94,49 a 8,8 0 0 0 -8,8 v 6 h 8 A 8,8 0 0 0 101.9082,55.802734 8,8 0 0 0 94,49 Z" /><path
     id="path13-2"
     style="fill:#c40d55;fill-opacity:1;stroke:none;stroke-width:4;stroke-linecap:round;stroke-linejoin:round;stroke-opacity:1"
     d="M 34,69 A 8,8 0 0 0 26.05664,76.5 8,8 0 0 0 34,84 8,8 0 0 0 42,76 v -7 z m 19.96484,0 C 49.5518,69 46,72.568004 46,77 v 19 c 0,4.432 3.5518,8 7.96484,8 h 0.0703 C 58.44812,104 62,100.432 62,96 V 77 c 0,-4.431996 -3.5518,-8 -7.96484,-8 z" /><path
     id="path14-3"
     style="fill:#e3066a;fill-opacity:1;stroke:none;stroke-width:4;stroke-linecap:round;stroke-linejoin:round;stroke-opacity:1"
     d="M 34,69 A 8,8 0 0 0 26.11328,76 8,8 0 0 0 34,83 8,8 0 0 0 42,75 v -6 z m 19.96484,0 C 49.5518,69 46,72.568004 46,77 v 18 c 0,4.432 3.5518,8 7.96484,8 h 0.0703 C 58.44812,103 62,99.432 62,95 V 77 c 0,-4.431996 -3.5518,-8 -7.96484,-8 z" /><path
     id="path15-7"
     style="fill:#1da1eb;fill-opacity:1;stroke:none;stroke-width:4;stroke-linecap:round;stroke-linejoin:round;stroke-opacity:1"
     d="M 54,29 A 8,8 0 0 0 46.05664,36.5 8,8 0 0 0 54,44 h 8 V 37 A 8,8 0 0 0 54,29 Z M 34,49 c -4.26316,0 -7.71688,3.303946 -7.97461,7.5 C 26.28312,60.696054 29.73684,64 34,64 h 20 c 4.26315,0 7.71688,-3.303946 7.97461,-7.5 C 61.71688,52.303946 58.26315,49 54,49 Z" /><path
     id="path16-5"
     style="fill:#1ab9ff;fill-opacity:1;stroke:none;stroke-width:4;stroke-linecap:round;stroke-linejoin:round;stroke-opacity:1"
     d="M 54,29 A 8,8 0 0 0 46.11328,36 8,8 0 0 0 54,43 h 8 V 37 A 8,8 0 0 0 54,29 Z M 34,49 c -4.09254,0 -7.44158,3.04433 -7.93164,7 0.49006,3.95567 3.8391,7 7.93164,7 h 20 c 4.09254,0 7.44158,-3.04433 7.93164,-7 C 61.44158,52.04433 58.09254,49 54,49 Z" /></svg>
