<?xml version="1.0" encoding="UTF-8" standalone="no"?>
<svg
   version="1.1"
   width="16"
   height="16"
   id="svg4372"
   xml:space="preserve"
   sodipodi:docname="ghostty.svg"
   inkscape:version="1.4.2 (ebf0e940d0, 2025-05-08)"
   xmlns:inkscape="http://www.inkscape.org/namespaces/inkscape"
   xmlns:sodipodi="http://sodipodi.sourceforge.net/DTD/sodipodi-0.dtd"
   xmlns:xlink="http://www.w3.org/1999/xlink"
   xmlns="http://www.w3.org/2000/svg"
   xmlns:svg="http://www.w3.org/2000/svg"
   xmlns:rdf="http://www.w3.org/1999/02/22-rdf-syntax-ns#"
   xmlns:cc="http://creativecommons.org/ns#"
   xmlns:dc="http://purl.org/dc/elements/1.1/"><sodipodi:namedview
     id="namedview1"
     pagecolor="#ffffff"
     bordercolor="#000000"
     borderopacity="0.25"
     inkscape:showpageshadow="2"
     inkscape:pageopacity="0.0"
     inkscape:pagecheckerboard="0"
     inkscape:deskcolor="#d1d1d1"
     showgrid="false"
     inkscape:zoom="2.185"
     inkscape:cx="22.425629"
     inkscape:cy="9.610984"
     inkscape:current-layer="svg4372"><inkscape:grid
       id="grid1"
       units="px"
       originx="0"
       originy="0"
       spacingx="0.5"
       spacingy="0.5"
       empcolor="#0099e5"
       empopacity="0.30196078"
       color="#0099e5"
       opacity="0.078431373"
       empspacing="2"
       enabled="true"
       visible="false" /><inkscape:page
       x="0"
       y="0"
       width="16"
       height="16"
       id="page1"
       margin="0"
       bleed="0" /></sodipodi:namedview><defs
     id="defs4374"><linearGradient
       x1="23.999985"
       y1="7.1818104"
       x2="23.999985"
       y2="40.818172"
       id="linearGradient3304"
       xlink:href="#linearGradient3924-4-8"
       gradientUnits="userSpaceOnUse"
       gradientTransform="matrix(0.2972973,0,0,0.2972973,0.86486906,0.8648672)" /><linearGradient
       id="linearGradient3924-4-8"><stop
         id="stop3926-0-4"
         style="stop-color:#ffffff;stop-opacity:1"
         offset="0" /><stop
         id="stop3928-6-8"
         style="stop-color:#ffffff;stop-opacity:0.23529412"
         offset="0.10167469" /><stop
         id="stop3930-2-1"
         style="stop-color:#ffffff;stop-opacity:0.15686275"
         offset="0.95000005" /><stop
         id="stop3932-9-0"
         style="stop-color:#ffffff;stop-opacity:0.39215687"
         offset="1" /></linearGradient><linearGradient
       id="linearGradient2"><stop
         style="stop-color:#fafafa;stop-opacity:1;"
         offset="0"
         id="stop7" /><stop
         style="stop-color:#7e8087;stop-opacity:1;"
         offset="1"
         id="stop8-5" /></linearGradient><linearGradient
       id="linearGradient1"><stop
         style="stop-color:#c6262e;stop-opacity:1;"
         offset="0"
         id="stop4" /><stop
         style="stop-color:#f37329;stop-opacity:1;"
         offset="0.5"
         id="stop6" /><stop
         style="stop-color:#f9c440;stop-opacity:1;"
         offset="1"
         id="stop5" /></linearGradient><linearGradient
       id="linearGradient870"><stop
         id="stop868"
         offset="0"
         style="stop-color:#182027;stop-opacity:1;" /><stop
         id="stop866"
         offset="1"
         style="stop-color:#3a465a;stop-opacity:1;" /></linearGradient><linearGradient
       xlink:href="#linearGradient1"
       id="linearGradient3"
       gradientUnits="userSpaceOnUse"
       gradientTransform="matrix(0.29628741,0,0,0.29628741,0.5928155,0.5556889)"
       x1="25"
       y1="15"
       x2="25"
       y2="35" /><filter
       style="color-interpolation-filters:sRGB"
       id="filter3"
       x="-0.33599997"
       y="-0.1344"
       width="1.6719999"
       height="1.2688"><feGaussianBlur
         stdDeviation="0.13999999"
         id="feGaussianBlur3" /></filter><linearGradient
       xlink:href="#linearGradient6"
       id="linearGradient10"
       x1="8"
       y1="3.5"
       x2="8"
       y2="12.5"
       gradientUnits="userSpaceOnUse" /><linearGradient
       xlink:href="#linearGradient2"
       id="linearGradient13"
       x1="8"
       y1="1.5"
       x2="8"
       y2="13.999997"
       gradientUnits="userSpaceOnUse" /><linearGradient
       id="linearGradient25"><stop
         id="stop22"
         style="stop-color:#ffffff;stop-opacity:1"
         offset="0" /><stop
         id="stop23"
         style="stop-color:#ffffff;stop-opacity:0.23529412"
         offset="0.07142857" /><stop
         id="stop24"
         style="stop-color:#ffffff;stop-opacity:0.15686275"
         offset="0.9285714" /><stop
         id="stop25"
         style="stop-color:#ffffff;stop-opacity:0.39215687"
         offset="1" /></linearGradient><linearGradient
       id="linearGradient30"><stop
         style="stop-color:#ffffff;stop-opacity:1;"
         offset="0"
         id="stop30" /><stop
         style="stop-color:#ffffff;stop-opacity:0;"
         offset="1"
         id="stop32" /></linearGradient><linearGradient
       gradientTransform="matrix(0.45945947,0,0,0.45945947,26.97422,0.9717328)"
       gradientUnits="userSpaceOnUse"
       xlink:href="#linearGradient4095"
       id="linearGradient3233"
       y2="41.414463"
       x2="23.997284"
       y1="6.5909343"
       x1="23.997284" /><linearGradient
       id="linearGradient4095"><stop
         offset="0"
         style="stop-color:#ffffff;stop-opacity:1"
         id="stop4097" /><stop
         offset="0.03125"
         style="stop-color:#ffffff;stop-opacity:0.23529412"
         id="stop4100" /><stop
         offset="0.96878725"
         style="stop-color:#ffffff;stop-opacity:0.15686275"
         id="stop4102" /><stop
         offset="1"
         style="stop-color:#ffffff;stop-opacity:0.39215687"
         id="stop4104" /></linearGradient><radialGradient
       gradientTransform="matrix(2.003784,0,0,1.4,27.98813,-17.4)"
       gradientUnits="userSpaceOnUse"
       xlink:href="#linearGradient3688-166-749-9"
       id="radialGradient3082-6"
       fy="43.5"
       fx="4.9929786"
       r="2.5"
       cy="43.5"
       cx="4.9929786" /><linearGradient
       id="linearGradient3688-166-749-9"><stop
         offset="0"
         style="stop-color:#181818;stop-opacity:1"
         id="stop2883-2" /><stop
         offset="1"
         style="stop-color:#181818;stop-opacity:0"
         id="stop2885-2" /></linearGradient><radialGradient
       gradientTransform="matrix(2.003784,0,0,1.4,-20.01187,-104.4)"
       gradientUnits="userSpaceOnUse"
       xlink:href="#linearGradient3688-166-749-9"
       id="radialGradient3084-4"
       fy="43.5"
       fx="4.9929786"
       r="2.5"
       cy="43.5"
       cx="4.9929786" /><linearGradient
       gradientUnits="userSpaceOnUse"
       xlink:href="#linearGradient3702-501-757-1"
       id="linearGradient3086-8"
       y2="39.999443"
       x2="25.058096"
       y1="47.027729"
       x1="25.058096" /><linearGradient
       id="linearGradient3702-501-757-1"><stop
         offset="0"
         style="stop-color:#181818;stop-opacity:0"
         id="stop2895-2" /><stop
         offset="0.5"
         style="stop-color:#181818;stop-opacity:1"
         id="stop2897-89" /><stop
         offset="1"
         style="stop-color:#181818;stop-opacity:0"
         id="stop2899-36" /></linearGradient><linearGradient
       xlink:href="#linearGradient2"
       id="linearGradient871"
       x1="11.428493"
       y1="2.5262616"
       x2="11.428493"
       y2="21.451086"
       gradientUnits="userSpaceOnUse"
       gradientTransform="translate(26)" /><linearGradient
       id="linearGradient870-9"><stop
         id="stop866-1"
         offset="0"
         style="stop-color:#3a465a;stop-opacity:1;" /><stop
         id="stop868-27"
         offset="1"
         style="stop-color:#182027;stop-opacity:1;" /></linearGradient><linearGradient
       xlink:href="#linearGradient6"
       id="linearGradient9"
       x1="12"
       y1="3.5"
       x2="12"
       y2="20.498756"
       gradientUnits="userSpaceOnUse"
       gradientTransform="translate(26)" /><linearGradient
       xlink:href="#linearGradient1"
       id="linearGradient12"
       gradientUnits="userSpaceOnUse"
       gradientTransform="matrix(0.44443556,0,0,0.44443556,0.8891119,0.33346667)"
       x1="25"
       y1="15"
       x2="25"
       y2="35" /><filter
       style="color-interpolation-filters:sRGB"
       id="filter19"
       x="-0.336"
       y="-0.1344"
       width="1.6720001"
       height="1.2688"><feGaussianBlur
         stdDeviation="0.14"
         id="feGaussianBlur19" /></filter><filter
       style="color-interpolation-filters:sRGB"
       id="filter20"
       x="-0.95696753"
       y="-0.31898919"
       width="2.9139352"
       height="1.6379784"><feGaussianBlur
         stdDeviation="0.79747296"
         id="feGaussianBlur20" /></filter><linearGradient
       xlink:href="#linearGradient30"
       id="linearGradient32"
       x1="12"
       y1="5"
       x2="12"
       y2="17"
       gradientUnits="userSpaceOnUse" /><linearGradient
       id="linearGradient21"><stop
         id="stop17"
         style="stop-color:#ffffff;stop-opacity:1"
         offset="0" /><stop
         id="stop18"
         style="stop-color:#ffffff;stop-opacity:0.23529412"
         offset="0.04347826" /><stop
         id="stop19"
         style="stop-color:#ffffff;stop-opacity:0.15686275"
         offset="0.95454544" /><stop
         id="stop20"
         style="stop-color:#ffffff;stop-opacity:0.39215687"
         offset="1" /></linearGradient><linearGradient
       id="linearGradient3924-0"><stop
         id="stop3926-6"
         style="stop-color:#ffffff;stop-opacity:1"
         offset="0" /><stop
         id="stop3928-3"
         style="stop-color:#ffffff;stop-opacity:0.23529412"
         offset="0.06249999" /><stop
         id="stop3930-2"
         style="stop-color:#ffffff;stop-opacity:0.15686275"
         offset="0.93749994" /><stop
         id="stop3932-62"
         style="stop-color:#ffffff;stop-opacity:0.39215687"
         offset="1" /></linearGradient><linearGradient
       xlink:href="#linearGradient2"
       id="linearGradient930-9-2"
       x1="16.767664"
       y1="2.7676599"
       x2="16.767664"
       y2="29.896721"
       gradientUnits="userSpaceOnUse"
       gradientTransform="translate(34.000004)" /><linearGradient
       x1="23.99999"
       y1="6.2399855"
       x2="23.99999"
       y2="41.759987"
       id="linearGradient4161-0-2"
       xlink:href="#linearGradient3924-0"
       gradientUnits="userSpaceOnUse"
       gradientTransform="matrix(0.67567568,0,0,0.67567568,33.783787,-0.21620614)" /><linearGradient
       xlink:href="#linearGradient1"
       id="linearGradient118"
       gradientUnits="userSpaceOnUse"
       x1="25"
       y1="15"
       x2="25"
       y2="35"
       gradientTransform="matrix(0.66666,0,0,0.66666,-0.6664978,-1.9999)" /><linearGradient
       xlink:href="#linearGradient870"
       id="linearGradient11"
       x1="16"
       y1="4.5"
       x2="16"
       y2="27.5"
       gradientUnits="userSpaceOnUse"
       gradientTransform="translate(34)" /><filter
       style="color-interpolation-filters:sRGB"
       id="filter11"
       x="-0.352"
       y="-0.132"
       width="1.704"
       height="1.2640001"><feGaussianBlur
         stdDeviation="0.22"
         id="feGaussianBlur11" /></filter><filter
       style="color-interpolation-filters:sRGB"
       id="filter15"
       x="-0.11185714"
       y="-0.1044"
       width="1.2237144"
       height="1.2088"><feGaussianBlur
         stdDeviation="0.6525"
         id="feGaussianBlur15" /></filter><radialGradient
       xlink:href="#linearGradient3688-166-749-9"
       id="radialGradient36"
       gradientUnits="userSpaceOnUse"
       gradientTransform="matrix(2.003784,0,0,1.4,27.98813,-17.4)"
       cx="4.9929786"
       cy="43.5"
       fx="4.9929786"
       fy="43.5"
       r="2.5" /><radialGradient
       xlink:href="#linearGradient3688-166-749-9"
       id="radialGradient37"
       gradientUnits="userSpaceOnUse"
       gradientTransform="matrix(2.003784,0,0,1.4,-20.01187,-104.4)"
       cx="4.9929786"
       cy="43.5"
       fx="4.9929786"
       fy="43.5"
       r="2.5" /><inkscape:path-effect
       effect="offset"
       id="path-effect21"
       is_visible="true"
       lpeversion="1.3"
       linejoin_type="miter"
       unit="px"
       offset="-0.5"
       miter_limit="4"
       attempt_force_join="false"
       update_on_knot_move="true" /><linearGradient
       id="linearGradient21-3"><stop
         id="stop17-5"
         style="stop-color:#ffffff;stop-opacity:1"
         offset="0" /><stop
         id="stop18-6"
         style="stop-color:#ffffff;stop-opacity:0.23529412"
         offset="0.04166667" /><stop
         id="stop19-2"
         style="stop-color:#ffffff;stop-opacity:0.15686275"
         offset="0.95833331" /><stop
         id="stop20-9"
         style="stop-color:#ffffff;stop-opacity:0.39215687"
         offset="1" /></linearGradient><filter
       style="color-interpolation-filters:sRGB"
       id="filter11-2"
       x="-0.352"
       y="-0.132"
       width="1.704"
       height="1.2640001"><feGaussianBlur
         stdDeviation="0.22"
         id="feGaussianBlur11-0" /></filter><filter
       style="color-interpolation-filters:sRGB"
       id="filter15-2"
       x="-0.11185714"
       y="-0.1044"
       width="1.2237144"
       height="1.2088"><feGaussianBlur
         stdDeviation="0.6525"
         id="feGaussianBlur15-3" /></filter><linearGradient
       xlink:href="#linearGradient30"
       id="linearGradient34"
       x1="16"
       y1="5"
       x2="16"
       y2="23"
       gradientUnits="userSpaceOnUse" /><radialGradient
       xlink:href="#linearGradient3688-166-749-9"
       id="radialGradient36-5"
       gradientUnits="userSpaceOnUse"
       gradientTransform="matrix(2.003784,0,0,1.4,27.98813,-17.4)"
       cx="4.9929786"
       cy="43.5"
       fx="4.9929786"
       fy="43.5"
       r="2.5" /><radialGradient
       xlink:href="#linearGradient3688-166-749-9"
       id="radialGradient37-9"
       gradientUnits="userSpaceOnUse"
       gradientTransform="matrix(2.003784,0,0,1.4,-20.01187,-104.4)"
       cx="4.9929786"
       cy="43.5"
       fx="4.9929786"
       fy="43.5"
       r="2.5" /><inkscape:path-effect
       effect="offset"
       id="path-effect12"
       is_visible="true"
       lpeversion="1.3"
       linejoin_type="miter"
       unit="px"
       offset="-0.5"
       miter_limit="4"
       attempt_force_join="false"
       update_on_knot_move="true" /><linearGradient
       id="linearGradient12-2"><stop
         id="stop9"
         style="stop-color:#ffffff;stop-opacity:1"
         offset="0" /><stop
         id="stop10"
         style="stop-color:#ffffff;stop-opacity:0.23529412"
         offset="0.05405406" /><stop
         id="stop11"
         style="stop-color:#ffffff;stop-opacity:0.15686275"
         offset="0.91891891" /><stop
         id="stop12"
         style="stop-color:#ffffff;stop-opacity:0.39215687"
         offset="1" /></linearGradient><linearGradient
       id="linearGradient2-6"><stop
         style="stop-color:#d4d4d4;stop-opacity:1;"
         offset="0"
         id="stop7-7" /><stop
         style="stop-color:#7e8087;stop-opacity:1;"
         offset="1"
         id="stop8" /></linearGradient><linearGradient
       id="linearGradient1201"><stop
         id="stop1193"
         style="stop-color:#ffffff;stop-opacity:1"
         offset="0" /><stop
         id="stop1195"
         style="stop-color:#ffffff;stop-opacity:0.23529412"
         offset="0.06781636" /><stop
         id="stop1197"
         style="stop-color:#ffffff;stop-opacity:0.15686275"
         offset="0.94694352" /><stop
         id="stop1199"
         style="stop-color:#ffffff;stop-opacity:0.39215687"
         offset="1" /></linearGradient><linearGradient
       xlink:href="#linearGradient870"
       id="linearGradient15"
       gradientUnits="userSpaceOnUse"
       x1="24"
       y1="8"
       x2="24"
       y2="42.5"
       gradientTransform="translate(42)" /><linearGradient
       xlink:href="#linearGradient1"
       id="linearGradient16"
       gradientUnits="userSpaceOnUse"
       gradientTransform="translate(-1,-1)"
       x1="25"
       y1="15"
       x2="25"
       y2="35" /><radialGradient
       cx="4.9929786"
       cy="43.5"
       r="2.5"
       fx="4.9929786"
       fy="43.5"
       id="radialGradient3013-6-1-7"
       xlink:href="#linearGradient3688-166-749-9"
       gradientUnits="userSpaceOnUse"
       gradientTransform="matrix(2.003784,0,0,0.89999994,29.98813,4.8500025)" /><radialGradient
       cx="4.9929786"
       cy="43.5"
       r="2.5"
       fx="4.9929786"
       fy="43.5"
       id="radialGradient3015-1-8-9"
       xlink:href="#linearGradient3688-166-749-9"
       gradientUnits="userSpaceOnUse"
       gradientTransform="matrix(2.003784,0,0,0.89999994,-18.01187,-83.149997)" /><filter
       style="color-interpolation-filters:sRGB"
       id="filter1-0"
       x="-0.384"
       y="-0.12800001"
       width="1.768"
       height="1.256"><feGaussianBlur
         stdDeviation="0.32"
         id="feGaussianBlur1-2" /></filter><linearGradient
       id="linearGradient1036"
       inkscape:collect="always"><stop
         style="stop-color:#ccf0fe;stop-opacity:1;"
         offset="0"
         id="stop1036" /><stop
         style="stop-color:#a1d6f7;stop-opacity:1;"
         offset="1"
         id="stop1037" /></linearGradient><linearGradient
       id="linearGradient6"
       inkscape:collect="always"><stop
         style="stop-color:#002e99;stop-opacity:1;"
         offset="0"
         id="stop11-5" /><stop
         style="stop-color:#0d52bf;stop-opacity:1;"
         offset="1"
         id="stop10-3" /></linearGradient><linearGradient
       xlink:href="#linearGradient3702-501-757-1"
       id="linearGradient1191"
       gradientUnits="userSpaceOnUse"
       x1="25.058096"
       y1="47.027729"
       x2="25.058096"
       y2="39.999443"
       gradientTransform="matrix(1.1428571,0,0,0.6428571,-3.428569,16.035716)" /><radialGradient
       cx="4.9929786"
       cy="43.5"
       r="2.5"
       fx="4.9929786"
       fy="43.5"
       id="radialGradient3013-6-1-2"
       xlink:href="#linearGradient3688-166-749-9"
       gradientUnits="userSpaceOnUse"
       gradientTransform="matrix(2.003784,0,0,0.89999994,29.98813,4.8500025)" /><radialGradient
       cx="4.9929786"
       cy="43.5"
       r="2.5"
       fx="4.9929786"
       fy="43.5"
       id="radialGradient3015-1-8-5"
       xlink:href="#linearGradient3688-166-749-9"
       gradientUnits="userSpaceOnUse"
       gradientTransform="matrix(2.003784,0,0,0.89999994,-18.01187,-83.149997)" /><linearGradient
       inkscape:collect="always"
       xlink:href="#linearGradient1036"
       id="linearGradient18"
       x1="8"
       y1="4"
       x2="8"
       y2="12"
       gradientUnits="userSpaceOnUse" /><linearGradient
       xlink:href="#linearGradient1"
       id="linearGradient3-0"
       gradientUnits="userSpaceOnUse"
       gradientTransform="matrix(0.29628741,0,0,0.29628741,0.5928155,0.5556889)"
       x1="24.999998"
       y1="11.624899"
       x2="25"
       y2="35" /><filter
       style="color-interpolation-filters:sRGB"
       id="filter3-6"
       x="-0.28044251"
       y="-0.11199999"
       width="1.560885"
       height="1.224"><feGaussianBlur
         stdDeviation="0.13999999"
         id="feGaussianBlur3-2" /></filter></defs><metadata
     id="metadata4377"><rdf:RDF><cc:Work
         rdf:about=""><dc:format>image/svg+xml</dc:format><dc:type
           rdf:resource="http://purl.org/dc/dcmitype/StillImage" /></cc:Work></rdf:RDF></metadata><rect
     width="13.000003"
     height="13.000003"
     rx="2"
     ry="2"
     x="1.5"
     y="1.499997"
     id="rect5505-21-2-8"
     style="color:#000000;display:inline;overflow:visible;visibility:visible;fill:url(#linearGradient13);stroke:#7e8087;stroke-width:1;stroke-linecap:round;stroke-linejoin:round;stroke-miterlimit:4;stroke-dasharray:none;stroke-dashoffset:0;stroke-opacity:0.5;marker:none;enable-background:accumulate" /><rect
     width="11"
     height="11"
     x="2.5"
     y="2.4999969"
     id="rect6741-0-3-5"
     style="opacity:0.3;fill:none;stroke:url(#linearGradient3304);stroke-width:1;stroke-linecap:round;stroke-linejoin:round;stroke-miterlimit:4;stroke-dasharray:none;stroke-dashoffset:0;stroke-opacity:1"
     rx="1"
     ry="1" /><rect
     style="fill:url(#linearGradient10);stroke:#091825;stroke-linejoin:round;stroke-opacity:0.498039"
     id="rect3"
     width="9"
     height="9"
     x="3.5"
     y="3.5"
     rx="0"
     ry="0" /><g
     id="layer4-0"
     transform="matrix(0.9047486,0,0,0.9047486,-534.51497,-685.56047)" /><g
     id="layer4-0-7"
     transform="matrix(0.9047486,0,0,0.9047486,-534.51497,-678.32248)" /><g
     id="layer1-3"
     transform="matrix(0.9047486,0,0,0.9047486,-37.80799,-9.5033369)" /><g
     id="layer4-0-4"
     transform="matrix(0.9047486,0,0,0.9047486,-534.51497,-685.56047)" /><g
     id="layer4-0-7-9"
     transform="matrix(0.9047486,0,0,0.9047486,-534.51497,-678.32248)" /><g
     id="layer1-3-2"
     transform="matrix(0.9047486,0,0,0.9047486,-37.80799,-9.5033369)" /><g
     id="layer4-0-3"
     transform="matrix(0.9047486,0,0,0.9047486,-534.51497,-685.56047)" /><g
     id="layer4-0-7-7"
     transform="matrix(0.9047486,0,0,0.9047486,-534.51497,-678.32248)" /><g
     id="layer1-3-5"
     transform="matrix(0.9047486,0,0,0.9047486,-37.80799,-9.5033369)" /><g
     id="layer4-0-4-9"
     transform="matrix(0.9047486,0,0,0.9047486,-534.51497,-685.56047)" /><g
     id="layer4-0-7-9-2"
     transform="matrix(0.9047486,0,0,0.9047486,-534.51497,-678.32248)" /><g
     id="layer1-3-2-2"
     transform="matrix(0.9047486,0,0,0.9047486,-37.80799,-9.5033369)" /><g
     id="path1"
     style="opacity:0.5" /><g
     id="path2"
     style="opacity:0.5" /><g
     id="path4"
     style="opacity:0.5" /><g
     id="layer4-0-0"
     transform="matrix(0.9047486,0,0,0.9047486,-534.51497,-685.56047)" /><g
     id="layer4-0-7-93"
     transform="matrix(0.9047486,0,0,0.9047486,-534.51497,-678.32248)" /><g
     id="layer1-3-60"
     transform="matrix(0.9047486,0,0,0.9047486,-37.80799,-9.5033369)" /><g
     id="layer4-0-4-6"
     transform="matrix(0.9047486,0,0,0.9047486,-534.51497,-685.56047)" /><g
     id="layer4-0-7-9-26"
     transform="matrix(0.9047486,0,0,0.9047486,-534.51497,-678.32248)" /><g
     id="layer1-3-2-1"
     transform="matrix(0.9047486,0,0,0.9047486,-37.80799,-9.5033369)" /><g
     id="layer4-0-3-8"
     transform="matrix(0.9047486,0,0,0.9047486,-534.51497,-685.56047)" /><g
     id="layer4-0-7-7-7"
     transform="matrix(0.9047486,0,0,0.9047486,-534.51497,-678.32248)" /><g
     id="layer1-3-5-9"
     transform="matrix(0.9047486,0,0,0.9047486,-37.80799,-9.5033369)" /><g
     id="layer4-0-4-9-2"
     transform="matrix(0.9047486,0,0,0.9047486,-534.51497,-685.56047)" /><g
     id="layer4-0-7-9-2-0"
     transform="matrix(0.9047486,0,0,0.9047486,-534.51497,-678.32248)" /><g
     id="layer1-3-2-2-2"
     transform="matrix(0.9047486,0,0,0.9047486,-37.80799,-9.5033369)" /><g
     id="layer4-0-9"
     transform="matrix(0.9047486,0,0,0.9047486,-534.51497,-685.56047)" /><g
     id="layer4-0-7-73"
     transform="matrix(0.9047486,0,0,0.9047486,-534.51497,-678.32248)" /><g
     id="layer1-3-6"
     transform="matrix(0.9047486,0,0,0.9047486,-37.80799,-9.5033369)" /><g
     id="layer4-0-4-2"
     transform="matrix(0.9047486,0,0,0.9047486,-534.51497,-685.56047)" /><g
     id="layer4-0-7-9-9"
     transform="matrix(0.9047486,0,0,0.9047486,-534.51497,-678.32248)" /><g
     id="layer1-3-2-3"
     transform="matrix(0.9047486,0,0,0.9047486,-37.80799,-9.5033369)" /><g
     id="g24"><path
       id="path23"
       style="opacity:0.15;fill:#000000;fill-opacity:1;stroke:#000000;stroke-width:2;stroke-linejoin:round;stroke-dasharray:none;stroke-opacity:1"
       d="M 8,5 A 3,3 0 0 0 5,8 v 4 a 1,1 0 0 0 1,1 1,1 0 0 0 1,-1 1,1 0 0 0 1,1 1,1 0 0 0 1,-1 1,1 0 0 0 1,1 1,1 0 0 0 1,-1 V 8 A 3,3 0 0 0 8,5 Z M 6,7 a 0.5,0.5 0 0 1 0.3535156,0.1464844 l 1,1 a 0.50005,0.50005 0 0 1 0,0.7070312 l -1,1 a 0.5,0.5 0 0 1 -0.7070312,0 0.5,0.5 0 0 1 0,-0.7070312 L 6.2929688,8.5 5.6464844,7.8535156 a 0.5,0.5 0 0 1 0,-0.7070312 A 0.5,0.5 0 0 1 6,7 Z m 3,1 h 1 A 0.5,0.5 0 0 1 10.5,8.5 0.5,0.5 0 0 1 10,9 H 9 A 0.5,0.5 0 0 1 8.5,8.5 0.5,0.5 0 0 1 9,8 Z" /><path
       id="path22"
       style="opacity:0.15;fill:#000000;fill-opacity:1;stroke-linejoin:round"
       d="M 8,5 A 3,3 0 0 0 5,8 v 4 a 1,1 0 0 0 1,1 1,1 0 0 0 1,-1 1,1 0 0 0 1,1 1,1 0 0 0 1,-1 1,1 0 0 0 1,1 1,1 0 0 0 1,-1 V 8 A 3,3 0 0 0 8,5 Z M 6,7 a 0.5,0.5 0 0 1 0.3535156,0.1464844 l 1,1 a 0.50005,0.50005 0 0 1 0,0.7070312 l -1,1 a 0.5,0.5 0 0 1 -0.7070312,0 0.5,0.5 0 0 1 0,-0.7070312 L 6.2929688,8.5 5.6464844,7.8535156 a 0.5,0.5 0 0 1 0,-0.7070312 A 0.5,0.5 0 0 1 6,7 Z m 3,1 h 1 A 0.5,0.5 0 0 1 10.5,8.5 0.5,0.5 0 0 1 10,9 H 9 A 0.5,0.5 0 0 1 8.5,8.5 0.5,0.5 0 0 1 9,8 Z" /><path
       id="path3"
       style="opacity:1;fill:url(#linearGradient18);stroke-linejoin:round"
       d="M 8,4 A 3,3 0 0 0 5,7 v 4 a 1,1 0 0 0 1,1 1,1 0 0 0 1,-1 1,1 0 0 0 1,1 1,1 0 0 0 1,-1 1,1 0 0 0 1,1 1,1 0 0 0 1,-1 V 7 A 3,3 0 0 0 8,4 Z M 6,6 a 0.5,0.5 0 0 1 0.3535156,0.1464844 l 1,1 a 0.50005,0.50005 0 0 1 0,0.7070312 l -1,1 a 0.5,0.5 0 0 1 -0.7070312,0 0.5,0.5 0 0 1 0,-0.7070312 L 6.2929688,7.5 5.6464844,6.8535156 a 0.5,0.5 0 0 1 0,-0.7070312 A 0.5,0.5 0 0 1 6,6 Z m 3,1 h 1 A 0.5,0.5 0 0 1 10.5,7.5 0.5,0.5 0 0 1 10,8 H 9 A 0.5,0.5 0 0 1 8.5,7.5 0.5,0.5 0 0 1 9,7 Z" /><path
       id="path13"
       style="opacity:1;fill:#fafafa;stroke-linejoin:round"
       d="M 8,4 A 3,3 0 0 0 5,7 V 8 C 5,6.3431458 6.3431458,5 8,5 9.6568542,5 11,6.3431458 11,8 V 7 A 3,3 0 0 0 8,4 Z m -3,6 v 1 a 1,1 0 0 0 1,1 1,1 0 0 0 1,-1 1,1 0 0 0 1,1 1,1 0 0 0 1,-1 1,1 0 0 0 1,1 1,1 0 0 0 1,-1 v -1 c 0,0.552285 -0.447715,1 -1,1 C 9.4477153,11 9,10.552285 9,10 9,10.552285 8.5522847,11 8,11 7.4477153,11 7,10.552285 7,10 7,10.552285 6.5522847,11 6,11 5.4477153,11 5,10.552285 5,10 Z" /></g><g
     id="layer4-0-2"
     transform="matrix(0.9047486,0,0,0.9047486,-508.51497,-685.56047)" /><g
     id="layer4-0-7-0"
     transform="matrix(0.9047486,0,0,0.9047486,-508.51497,-678.32248)" /><g
     id="layer1-3-23"
     transform="matrix(0.9047486,0,0,0.9047486,-11.80799,-9.5033369)" /><g
     id="layer4-0-4-7"
     transform="matrix(0.9047486,0,0,0.9047486,-508.51497,-685.56047)" /><g
     id="layer4-0-7-9-5"
     transform="matrix(0.9047486,0,0,0.9047486,-508.51497,-678.32248)" /><g
     id="layer1-3-2-9"
     transform="matrix(0.9047486,0,0,0.9047486,-11.80799,-9.5033369)" /><g
     id="layer4-0-3-2"
     transform="matrix(0.9047486,0,0,0.9047486,-508.51497,-685.56047)" /><g
     id="layer4-0-7-7-2"
     transform="matrix(0.9047486,0,0,0.9047486,-508.51497,-678.32248)" /><g
     id="layer1-3-5-8"
     transform="matrix(0.9047486,0,0,0.9047486,-11.80799,-9.5033369)" /><g
     id="layer4-0-4-9-9"
     transform="matrix(0.9047486,0,0,0.9047486,-508.51497,-685.56047)" /><g
     id="layer4-0-7-9-2-7"
     transform="matrix(0.9047486,0,0,0.9047486,-508.51497,-678.32248)" /><g
     id="layer1-3-2-2-3"
     transform="matrix(0.9047486,0,0,0.9047486,-11.80799,-9.5033369)" /><g
     id="path1-1"
     style="opacity:0.5"
     transform="translate(26)" /><g
     id="path2-2"
     style="opacity:0.5"
     transform="translate(26)" /><g
     id="path4-9"
     style="opacity:0.5"
     transform="translate(26)" /><g
     id="g8"
     style="mix-blend-mode:overlay;fill:#ffffff;fill-opacity:1;stroke:none"
     transform="translate(13)"><g
       id="g7"
       style="opacity:0.5;fill:#ffffff;fill-opacity:1;stroke:none" /><path
       id="path7"
       style="opacity:0.3;mix-blend-mode:overlay;fill:none;stroke:#ffffff;stroke-width:2;stroke-linecap:round;stroke-linejoin:round;stroke-dasharray:none;stroke-opacity:1"
       d="m -8,9 h 6 M -8,5 h 6" /><path
       id="path8"
       style="opacity:0.3;mix-blend-mode:overlay;fill:none;stroke:#ffffff;stroke-width:2;stroke-linecap:round;stroke-linejoin:round;stroke-dasharray:none;stroke-opacity:1"
       d="m -8,10 h 6 M -8,6 h 6" /></g></svg>
