<?xml version="1.0" encoding="UTF-8" standalone="no"?>
<svg
   version="1.1"
   width="16"
   height="16"
   id="svg4372"
   xml:space="preserve"
   sodipodi:docname="slack.svg"
   inkscape:version="1.4 (e7c3feb100, 2024-10-09)"
   xmlns:inkscape="http://www.inkscape.org/namespaces/inkscape"
   xmlns:sodipodi="http://sodipodi.sourceforge.net/DTD/sodipodi-0.dtd"
   xmlns:xlink="http://www.w3.org/1999/xlink"
   xmlns="http://www.w3.org/2000/svg"
   xmlns:svg="http://www.w3.org/2000/svg"
   xmlns:rdf="http://www.w3.org/1999/02/22-rdf-syntax-ns#"
   xmlns:cc="http://creativecommons.org/ns#"
   xmlns:dc="http://purl.org/dc/elements/1.1/"><sodipodi:namedview
     id="namedview1"
     pagecolor="#ffffff"
     bordercolor="#000000"
     borderopacity="0.25"
     inkscape:showpageshadow="2"
     inkscape:pageopacity="0.0"
     inkscape:pagecheckerboard="0"
     inkscape:deskcolor="#d1d1d1"
     showgrid="false"
     inkscape:zoom="2.185"
     inkscape:cx="-7.3226545"
     inkscape:cy="7.5514874"
     inkscape:current-layer="svg4372"><inkscape:page
       x="0"
       y="0"
       width="16"
       height="16"
       id="page2"
       margin="0"
       bleed="0" /><inkscape:grid
       id="grid2"
       units="px"
       originx="-26"
       originy="0"
       spacingx="0.5"
       spacingy="0.5"
       empcolor="#0099e5"
       empopacity="0.30196078"
       color="#0099e5"
       opacity="0.0784314"
       empspacing="2"
       enabled="true"
       visible="false" /></sodipodi:namedview><defs
     id="defs4374"><inkscape:path-effect
       effect="offset"
       id="path-effect2"
       is_visible="true"
       lpeversion="1.3"
       linejoin_type="miter"
       unit="px"
       offset="-0.5"
       miter_limit="4"
       attempt_force_join="false"
       update_on_knot_move="true" /><linearGradient
       x1="23.999985"
       y1="7.1818104"
       x2="23.999985"
       y2="40.818172"
       id="linearGradient3304"
       xlink:href="#linearGradient3924-4-8"
       gradientUnits="userSpaceOnUse"
       gradientTransform="matrix(0.2972973,0,0,0.2972973,0.86486906,0.8648672)" /><linearGradient
       id="linearGradient3924-4-8"><stop
         id="stop3926-0-4"
         style="stop-color:#ffffff;stop-opacity:1"
         offset="0" /><stop
         id="stop3928-6-8"
         style="stop-color:#ffffff;stop-opacity:0.23529412"
         offset="0.0469543" /><stop
         id="stop3930-2-1"
         style="stop-color:#ffffff;stop-opacity:0.15686275"
         offset="0.95000005" /><stop
         id="stop3932-9-0"
         style="stop-color:#ffffff;stop-opacity:0.39215687"
         offset="1" /></linearGradient><linearGradient
       xlink:href="#linearGradient4-6"
       id="linearGradient867"
       x1="8"
       y1="2"
       x2="8"
       y2="14"
       gradientUnits="userSpaceOnUse" /><style
       id="style1">.g{fill:#000;}.g,.h,.i{stroke-width:0px;}.h{fill:url(#e);}.i{fill:#fff;}</style><style
       id="style1-7">.g{fill:#000;}.g,.h,.i{stroke-width:0px;}.h{fill:url(#e);}.i{fill:#fff;}</style><style
       id="style1-5">.g{fill:#000;}.g,.h,.i{stroke-width:0px;}.h{fill:url(#e);}.i{fill:#fff;}</style><linearGradient
       id="linearGradient4-6"><stop
         style="stop-color:#fafafa;stop-opacity:1;"
         offset="0"
         id="stop4-7" /><stop
         style="stop-color:#d4d4d4;stop-opacity:1;"
         offset="1"
         id="stop5" /></linearGradient><style
       id="style1-53">.g{fill:#000;}.g,.h,.i{stroke-width:0px;}.h{fill:url(#e);}.i{fill:#fff;}</style><style
       id="style1-6">.cls-1{fill:#fff;}</style><style
       id="style1-67">.cls-1{fill:#fff;}</style><linearGradient
       id="linearGradient10"><stop
         offset="0"
         style="stop-color:#ffffff;stop-opacity:1"
         id="stop7" /><stop
         offset="0.20833333"
         style="stop-color:#ffffff;stop-opacity:0.23529412"
         id="stop8" /><stop
         offset="0.80000335"
         style="stop-color:#ffffff;stop-opacity:0.15686275"
         id="stop9" /><stop
         offset="1"
         style="stop-color:#ffffff;stop-opacity:0.39215687"
         id="stop10" /></linearGradient><style
       id="style1-535">.g{fill:#000;}.g,.h,.i{stroke-width:0px;}.h{fill:url(#e);}.i{fill:#fff;}</style><style
       id="style1-7-6">.g{fill:#000;}.g,.h,.i{stroke-width:0px;}.h{fill:url(#e);}.i{fill:#fff;}</style><style
       id="style1-5-2">.g{fill:#000;}.g,.h,.i{stroke-width:0px;}.h{fill:url(#e);}.i{fill:#fff;}</style><style
       id="style1-53-9">.g{fill:#000;}.g,.h,.i{stroke-width:0px;}.h{fill:url(#e);}.i{fill:#fff;}</style><style
       id="style1-6-1">.cls-1{fill:#fff;}</style><style
       id="style1-67-2">.cls-1{fill:#fff;}</style><linearGradient
       id="linearGradient2"><stop
         style="stop-color:#5865f2;stop-opacity:1;"
         offset="0"
         id="stop3-3" /><stop
         style="stop-color:#1f30f4;stop-opacity:1;"
         offset="1"
         id="stop4-5" /></linearGradient><style
       id="style1-675">.g{fill:#000;}.g,.h,.i{stroke-width:0px;}.h{fill:url(#e);}.i{fill:#fff;}</style><style
       id="style1-6-3">.cls-1{fill:#fff;}</style><linearGradient
       xlink:href="#linearGradient10"
       id="linearGradient7"
       x1="8"
       y1="2"
       x2="8"
       y2="14"
       gradientUnits="userSpaceOnUse" /><linearGradient
       xlink:href="#linearGradient4-6"
       id="linearGradient12"
       x1="8"
       y1="1"
       x2="8"
       y2="15"
       gradientUnits="userSpaceOnUse" /></defs><metadata
     id="metadata4377"><rdf:RDF><cc:Work
         rdf:about=""><dc:format>image/svg+xml</dc:format><dc:type
           rdf:resource="http://purl.org/dc/dcmitype/StillImage" /></cc:Work></rdf:RDF></metadata><path
     d="m 8,1.0097656 c 3.866512,0 6.99023,3.1239255 6.990234,6.9882813 -0.0039,0.9297398 -0.192557,1.848575 -0.55664,2.7050781 -0.127426,0.301285 -0.27763,0.594241 -0.447266,0.876953 -0.394388,0.664847 -0.895322,1.259186 -1.484375,1.759766 l -0.328125,0.279297 0.220703,0.371093 c 0.131399,0.220475 0.293227,0.413977 0.480469,0.572266 -0.403382,0.271869 -0.879522,0.425391 -1.373047,0.427734 -0.386438,-0.0017 -0.766402,-0.09333 -1.111328,-0.267578 l -0.183594,-0.0918 -0.195312,0.05859 C 9.3588616,14.887277 8.6811365,14.988931 8,14.990234 4.1334884,14.990234 1.0097656,11.866512 1.0097656,8 1.0097656,4.1334888 4.1334884,1.0097656 8,1.0097656 Z"
     style="opacity:1;fill:url(#linearGradient12);stroke:none;stroke-linejoin:round;stroke-opacity:0.5"
     id="path4" /><circle
     style="opacity:1;fill:none;fill-opacity:1;stroke:url(#linearGradient7);stroke-linejoin:round;stroke-opacity:1"
     id="path5"
     cx="8"
     cy="8"
     r="6.5" /><path
     d="M 8,0.5 C 3.857864,0.5 0.5,3.8578644 0.5,8 0.5,12.142136 3.857864,15.5 8,15.5 8.73192,15.4986 9.459686,15.389985 10.160156,15.177734 10.575714,15.387667 11.034429,15.498 11.5,15.5 c 0.868737,-0.0041 1.693054,-0.384518 2.259766,-1.042969 -0.366206,-0.08139 -0.696763,-0.340965 -0.927735,-0.728515 0.632029,-0.537101 1.170588,-1.17532 1.59375,-1.888672 0.180596,-0.300964 0.339841,-0.614234 0.476563,-0.9375 C 15.292601,9.9842707 15.495784,8.9975675 15.5,8 15.5,3.8578644 12.142136,0.5 8,0.5 Z"
     style="opacity:1;fill:none;stroke:#7e8087;stroke-linejoin:round;stroke-opacity:0.5"
     id="path2" /><path
     id="path28-9"
     style="opacity:0.15;fill:#000000;fill-opacity:1;stroke:none;stroke-width:2;stroke-linejoin:round"
     d="M 6,4 C 5.447715,4 5,4.447715 5,5 5,5.552285 5.447715,6 6,6 H 7 V 5 C 7,4.447715 6.552285,4 6,4 Z M 9,4 C 8.447715,4 8,4.4477153 8,5 V 7 C 8,7.5522847 8.447715,8 9,8 9.552285,8 10,7.5522847 10,7 V 5 C 10,4.4477153 9.552285,4 9,4 Z m 3,2 c -0.552285,0 -1,0.4477153 -1,1 v 1 h 1 C 12.552285,8 13,7.5522847 13,7 13,6.4477153 12.552285,6 12,6 Z M 4,7 C 3.447715,7 3,7.447715 3,8 3,8.552285 3.447715,9 4,9 H 6 C 6.552285,9 7,8.552285 7,8 7,7.447715 6.552285,7 6,7 Z m 6,2 c -0.552285,0 -1,0.4477153 -1,1 0,0.552285 0.447715,1 1,1 h 2 c 0.552285,0 1,-0.447715 1,-1 0,-0.5522847 -0.447715,-1 -1,-1 z m -6,1 c -0.552285,0 -1,0.447715 -1,1 0,0.552285 0.447715,1 1,1 0.552285,0 1,-0.447715 1,-1 v -1 z m 3,0 c -0.552285,0 -1,0.447715 -1,1 v 2 c 0,0.552285 0.447715,1 1,1 0.552285,0 1,-0.447715 1,-1 V 11 C 8,10.447715 7.552285,10 7,10 Z m 2,2 v 1 c 0,0.552285 0.447715,1 1,1 0.552285,0 1,-0.447715 1,-1 0,-0.552285 -0.447715,-1 -1,-1 z" /><path
     id="path18-3"
     style="fill:#2e9850;fill-opacity:1;stroke:none;stroke-width:2;stroke-linejoin:round"
     d="M 9,3 C 8.447715,3 8,3.4477153 8,4 V 6 C 8,6.5522847 8.447715,7 9,7 9.552285,7 10,6.5522847 10,6 V 4 C 10,3.4477153 9.552285,3 9,3 Z m 3,2 c -0.552285,0 -1,0.4477153 -1,1 v 1 h 1 C 12.552285,7 13,6.5522847 13,6 13,5.4477153 12.552285,5 12,5 Z" /><path
     id="path21-6"
     style="fill:#e5a40f;fill-opacity:1;stroke:none;stroke-width:2;stroke-linejoin:round"
     d="M 13,9 C 13,8.4477153 12.552285,8 12,8 H 10 C 9.447715,8 9,8.4477153 9,9 c 0,0.5522847 0.447715,1 1,1 h 2 c 0.552285,0 1,-0.4477153 1,-1 z m -2,3 c 0,-0.552285 -0.447715,-1 -1,-1 H 9 v 1 c 0,0.552285 0.447715,1 1,1 0.552285,0 1,-0.447715 1,-1 z" /><path
     id="path22-0"
     style="fill:#c40d55;fill-opacity:1;stroke:none;stroke-width:2;stroke-linejoin:round"
     d="m 7,13 c 0.552285,0 1,-0.447715 1,-1 V 10 C 8,9.4477153 7.552285,9 7,9 6.447715,9 6,9.4477153 6,10 v 2 c 0,0.552285 0.447715,1 1,1 z M 4,11 c 0.552285,0 1,-0.447715 1,-1 V 9 H 4 c -0.552285,0 -1,0.4477153 -1,1 0,0.552285 0.447715,1 1,1 z" /><path
     id="path23-6"
     style="fill:#1da1eb;fill-opacity:1;stroke:none;stroke-width:2;stroke-linejoin:round"
     d="M 3,7 C 3,7.552285 3.447715,8 4,8 H 6 C 6.552285,8 7,7.552285 7,7 7,6.447715 6.552285,6 6,6 H 4 C 3.447715,6 3,6.447715 3,7 Z M 5,4 C 5,4.552285 5.447715,5 6,5 H 7 V 4 C 7,3.447715 6.552285,3 6,3 5.447715,3 5,3.447715 5,4 Z" /><path
     id="path24-2"
     style="fill:#41b658;fill-opacity:1;stroke:none;stroke-width:2;stroke-linejoin:round"
     d="M 9,3 C 8.447715,3 8,3.4477153 8,4 V 5 C 8,5.5522847 8.447715,6 9,6 9.552285,6 10,5.5522847 10,5 V 4 C 10,3.4477153 9.552285,3 9,3 Z m 3,2 c -0.552285,0 -1,0.4477153 -1,1 h 1 C 12.369885,6 12.692242,5.7985587 12.865234,5.5 12.692242,5.2014413 12.369885,5 12,5 Z" /><path
     id="path25-6"
     style="fill:#1ab9ff;fill-opacity:1;stroke:none;stroke-width:2;stroke-linejoin:round"
     d="M 6,3 C 5.630115,3 5.307758,3.2014413 5.134766,3.5 5.307758,3.7985587 5.630115,4 6,4 H 7 C 7,3.447715 6.552285,3 6,3 Z M 4,6 C 3.630115,6 3.307758,6.2014413 3.134766,6.5 3.307758,6.7985587 3.630115,7 4,7 H 6 C 6.369885,7 6.692242,6.7985587 6.865234,6.5 6.692242,6.2014413 6.369885,6 6,6 Z" /><path
     id="path26-1"
     style="fill:#e3066a;fill-opacity:1;stroke:none;stroke-width:2;stroke-linejoin:round"
     d="M 4,9 C 3.630115,9 3.307758,9.2014413 3.134766,9.5 3.307758,9.7985587 3.630115,10 4,10 4.552285,10 5,9.552285 5,9 Z M 7,9 C 6.447715,9 6,9.4477153 6,10 v 1 c 0,0.552285 0.447715,1 1,1 0.552285,0 1,-0.447715 1,-1 V 10 C 8,9.4477153 7.552285,9 7,9 Z" /><path
     id="path27-8"
     style="fill:#fcc003;fill-opacity:1;stroke:none;stroke-width:2;stroke-linejoin:round"
     d="M 10,8 C 9.630115,8 9.307758,8.2014413 9.134766,8.5 9.307758,8.7985587 9.630115,9 10,9 h 2 C 12.369885,9 12.692242,8.7985587 12.865234,8.5 12.692242,8.2014413 12.369885,8 12,8 Z m -1,3 c 0,0.552285 0.447715,1 1,1 0.369885,0 0.692242,-0.201441 0.865234,-0.5 C 10.692242,11.201441 10.369885,11 10,11 Z" /></svg>
